<?xml version="1.0" encoding="UTF-8" standalone="no"?>
<!-- Created with Inkscape (http://www.inkscape.org/) -->

<svg
   version="1.1"
   id="svg2"
   width="1496"
   height="1496"
   viewBox="0 0 1496 1496"
   sodipodi:docname="36765.eps"
   xmlns:inkscape="http://www.inkscape.org/namespaces/inkscape"
   xmlns:sodipodi="http://sodipodi.sourceforge.net/DTD/sodipodi-0.dtd"
   xmlns="http://www.w3.org/2000/svg"
   xmlns:svg="http://www.w3.org/2000/svg">
  <defs
     id="defs6" />
  <sodipodi:namedview
     id="namedview4"
     pagecolor="#ffffff"
     bordercolor="#000000"
     borderopacity="0.25"
     inkscape:showpageshadow="2"
     inkscape:pageopacity="0.0"
     inkscape:pagecheckerboard="0"
     inkscape:deskcolor="#d1d1d1" />
  <g
     id="g8"
     inkscape:groupmode="layer"
     inkscape:label="ink_ext_XXXXXX"
     transform="matrix(1.3333333,0,0,-1.3333333,0,1496)">
    <g
       id="g10"
       transform="scale(0.1)">
      <path
         d="M 11220,0 H 0 V 11220 H 11220 V 0"
         style="fill:#d8a848;fill-opacity:1;fill-rule:nonzero;stroke:none"
         id="path12" />
      <path
         d="m 5901.79,8114.42 c 0,0 -186,215.01 -368.98,201.41 0,0 -80.8,51.53 -228.32,27.46 -147.51,-24.07 -183.52,-74.54 -183.52,-74.54 0,0 -329.63,58.84 -550.03,-162.67 -220.4,-221.5 -195.69,-297.91 -195.69,-297.91 0,0 -263.69,48.08 -422.74,-128.26 -159.04,-176.35 -205.84,-297.83 -186.86,-445.3 0,0 -279.79,-48.27 -388.74,-301.26 -108.94,-252.98 -84.78,-390.34 -84.78,-390.34 0,0 -282.53,-353.01 -314.92,-566.04 -32.4,-213.04 78.97,-254.68 78.97,-254.68 0,0 -190.11,-242.09 -201.64,-394.37 -11.53,-152.27 38.03,-289.86 88.08,-371.58 50.06,-81.72 140.98,-138.41 124.28,-300.79 -16.7,-162.39 -3.79,-421.55 61.32,-523.72 65.11,-102.17 90.28,-127.79 90.28,-127.79 0,0 -27.64,-248.64 168.2,-499.29 195.83,-250.64 261.86,-251.24 261.86,-251.24 l -46.58,-96.08 70.74,-41.28 c 0,0 66.07,4.49 60.85,-10.7 -5.21,-15.19 -6.35,-142.16 -6.35,-142.16 l -15.79,-60.81 c 0,0 -96.77,-29.61 -102.54,-105.75 -5.76,-76.13 89.73,-188.74 89.73,-188.74 l 2.93,-238.75 c 0,0 -102.08,-54.95 -112.87,-125.97 -10.8,-71.01 94.8,-188.78 94.8,-188.78 l -12.53,-264.01 -5.68,-65.98 207.69,-62.83 c 0,0 -21.82,-167.41 13.04,-243.92 34.87,-76.5 120.39,-168.7 277.24,-236.15 156.85,-67.4 623.42,-147.8 725.87,-52.2 102.44,95.55 138.91,196.81 138.91,196.81 l 162.25,-31.94 c 0,0 121.84,-6.17 142.94,79.98 21.09,86.17 -8.56,177.86 -8.56,177.86 l 67.63,177.16 c 0,0 106.61,-6.03 127.61,69.96 21,76 -64.84,132.65 -64.84,132.65 l 83,192.27 c 0,0 127.06,9.01 142.8,64.74 15.74,55.73 -8.88,142.3 -8.88,142.3 l -35.32,25.71 62,116.27 91.33,-10.98 c 0,0 112.14,44.7 108.02,151.41 0,0 422.1,57.15 642.54,283.73 220.45,226.59 344.36,448.96 344.36,448.96 0,0 98.6,232.76 180.18,267.58 81.58,34.82 274.94,73.72 377.66,199.77 102.72,126.06 169.8,242.28 150.67,374.51 -19.12,132.24 -13.36,208.38 -13.36,208.38 0,0 127.11,14.09 173.87,130.49 46.76,116.41 84.32,339.56 61.9,669.91 0,0 159.46,222.05 131.54,506.75 -27.91,284.68 -164.4,357.02 -164.4,357.02 0,0 174.42,191.45 75.58,497.09 -98.83,305.65 -276.68,297.09 -276.68,297.09 0,0 124.31,268.08 -21.1,477.64 -145.42,209.56 -352.64,323.17 -352.64,323.17 0,0 -59.49,163.07 -165.73,209.74 -106.25,46.67 -162.12,47.18 -162.12,47.18 0,0 -85.61,82.03 -217.66,83.22 -132.05,1.19 -254.63,-73.89 -280.3,-104.14 -25.66,-30.24 -107.1,-49.83 -107.1,-49.83 l -199.73,-181.05 c 0,0 -78.79,274.99 -119.06,315.98 -40.26,41 -54.63,137.63 -54.63,137.63"
         style="fill:#ffffff;fill-opacity:1;fill-rule:nonzero;stroke:none"
         id="path14" />
      <path
         d="m 4664.95,7789.86 c 24.73,53.51 58.85,101.68 100.24,141.32 82.83,79.33 188.76,111.25 293.07,92.2 59.33,-10.84 114.03,-32.23 160.77,-72.91 0.29,-0.25 -0.08,-0.71 -0.38,-0.53 -54.38,34.24 -117.33,55.66 -181.86,53.52 -61.48,-2.04 -121.76,-21.4 -177.19,-53.21 -53.64,-30.78 -98.51,-77.89 -132.3,-132.97 -16.65,-27.15 -30.03,-56.6 -40.32,-87.06 -11.24,-33.27 -14.65,-67.3 -22.6,-101.23 -4.51,-19.23 -36.17,-29.35 -38.38,-4.6 -4.86,54.31 16.29,116.42 38.95,165.47"
         style="fill:#000000;fill-opacity:1;fill-rule:nonzero;stroke:none"
         id="path16" />
      <path
         d="m 3286.53,6776.97 c 22.55,79.18 57.39,154.35 102.75,221.79 45.87,68.2 102.89,127.21 167.75,172.94 61.22,43.17 131.38,76.07 203.08,73.93 -8.2,60.07 3.1,125.65 19.72,184.03 17.96,63.1 45.71,123.17 82.01,176.79 71.91,106.23 176.61,181.23 291.18,214.73 63.83,18.66 134.24,32.68 198.02,17.39 34.09,-8.17 13.01,-61.24 -16.97,-59.63 -33.62,1.79 -67.16,5.78 -100.93,5.58 -33.86,-0.2 -67.33,-7.71 -100.24,-18.2 -64.03,-20.42 -125.3,-56 -177.22,-103.37 -56.38,-51.44 -101.39,-117.34 -132.19,-189.78 -31.6,-74.29 -41.56,-149.41 -50.59,-228.29 3.11,-0.28 6.21,-0.5 9.32,-0.92 70.77,-9.46 137.97,-58.42 160.29,-133.11 58.39,-13.64 127.33,-35.85 187.23,-9.88 53.68,23.28 83.31,79.27 103.51,135.21 41.22,114.1 52.82,246.26 151.92,323.92 115.62,90.62 253.07,56.38 373.8,18.1 76.75,-24.33 151.41,-52.6 233.68,-49.23 69.92,2.87 140.67,31.47 185.4,95.63 0.92,1.32 3.5,0.58 2.57,-1.18 -61.18,-114.22 -194.69,-143.33 -301.63,-127.79 -76.92,11.18 -149.54,38.42 -224.87,56.13 -60.46,14.21 -123.01,17.42 -185.17,3.93 -59.04,-12.82 -107.71,-48.86 -138.74,-107.13 -29.7,-55.77 -43.9,-120.09 -60.16,-180.91 -14.66,-54.8 -32.86,-111.82 -69.66,-154.82 -41.17,-48.1 -97.78,-68.42 -155.22,-69.03 -113.38,-1.2 -269.2,90.71 -349.36,-51.3 -9.58,-16.99 -38.98,-11.24 -35.3,10.37 10.22,60 63.1,95.27 112.93,110.35 51.75,15.66 103.9,11.5 154.62,0.83 -36.31,48.98 -85.94,87.68 -145.38,94.01 -70.32,7.49 -142.42,-33.1 -200.53,-76.79 -110.79,-83.29 -194.24,-208.2 -236.81,-346.34 -11.59,-37.6 -19.56,-76.5 -24.47,-115.45 -2.53,-20.05 -4.28,-40.22 -4.9,-60.35 -0.67,-21.42 1.36,-43.57 -4.41,-64.51 -5.85,-21.16 -35.4,-35.61 -45.89,-11.69 -14.96,34.1 -7.63,82.99 -3.62,120.4 4.48,41.82 12.94,83.11 24.48,123.64"
         style="fill:#000000;fill-opacity:1;fill-rule:nonzero;stroke:none"
         id="path18" />
      <path
         d="m 3968.39,7357.74 c 36.6,10 72.56,7.93 106.5,-5.46 -6.27,23.92 -10.27,48.74 -11.79,73.76 -2.02,33.05 0.02,66.86 6.53,99.71 3.26,16.44 7.84,32.16 14.06,47.71 6.68,16.68 15.83,26.05 24.54,41.32 0.52,0.92 1.89,0.36 1.54,-0.71 -3.26,-9.81 -3.12,-20.62 -4.83,-30.67 -1.07,-6.37 -2.92,-12.68 -4.11,-19.04 -2.79,-15.04 -5.41,-30.3 -7.09,-45.48 -3.28,-29.51 -2.62,-59.2 1.5,-88.15 4.11,-28.78 11.89,-56.33 23.08,-82.36 5.44,-12.66 11.62,-25.44 18.97,-36.91 6.56,-6.68 12.5,-13.99 17.57,-21.91 4.17,-4.72 8.19,-9.55 11.46,-15.03 4.04,-6.78 4.85,-13.64 3.47,-19.78 0.61,-2.57 1.15,-5.17 1.56,-7.83 3.07,-19.67 -28,-38.35 -38.65,-20.75 -3.82,6.3 -7.44,12.69 -11.01,19.06 -5.99,7.61 -10.57,16.83 -14.87,25.96 -10.1,16.68 -21.34,32.29 -36.72,44.91 -28.73,23.57 -65.1,36.62 -101.91,35.01 -4.02,-0.18 -3.13,5.73 0.2,6.64"
         style="fill:#000000;fill-opacity:1;fill-rule:nonzero;stroke:none"
         id="path20" />
      <path
         d="m 3552.62,6869.36 c 4.8,5.33 11.41,7.21 17.74,6.55 2.39,9.16 5.85,17.75 10.61,25.42 8.99,14.49 28.71,10.83 32.24,-4.69 4.73,-20.84 -2.59,-45.07 -2.63,-66.64 -0.03,-22.41 1.81,-45.28 5.5,-67.1 7.83,-46.28 21.7,-91.46 48.85,-127.54 2.35,-3.12 -2.38,-6.66 -4.87,-4.34 -35.14,32.75 -65.83,71.94 -80.47,121.18 -4.83,16.26 -9.5,36.24 -11.94,56.97 -15.91,-30.41 -30.74,-60.92 -38.35,-95.7 -10.41,-47.6 -10.93,-97.08 -1,-143.68 8.87,-41.65 26.43,-81.49 49.93,-114.82 24.19,-34.29 55.45,-59.24 85.08,-87.29 6.64,-6.28 -4.01,-16.03 -10.25,-14.35 -83.57,22.52 -144.1,119.17 -164.74,206.46 -23.27,98.4 -5.56,231.94 64.3,309.57"
         style="fill:#000000;fill-opacity:1;fill-rule:nonzero;stroke:none"
         id="path22" />
      <path
         d="m 2949.16,5837.99 c -12.42,75.44 8.53,154.46 33.04,226.45 48.07,141.22 122.45,272.87 216.63,384.25 25.87,30.58 52.89,59.55 81.98,86.4 29.59,27.31 60.18,49.16 93.01,71.16 2.83,1.88 4.71,-2.05 2.6,-4.36 -43.73,-47.84 -85.66,-99.14 -125.68,-150.82 -40.46,-52.24 -75.96,-108.23 -109.28,-165.99 -32.69,-56.65 -60.66,-116.58 -84.02,-178.15 -24.34,-64.13 -48.77,-132.7 -50.96,-201.84 -1.06,-33.72 4.12,-66.82 17.29,-96.58 10.29,-23.24 25.73,-37.01 41.56,-52.49 12.6,24.15 21.13,50.44 22.9,80.24 0.54,9.13 15.73,13.98 18.59,4.74 27.4,-88.52 -46.45,-174.41 -96.4,-238.05 -51.98,-66.24 -91.02,-139.17 -110.48,-223.44 -18.56,-80.37 -21.33,-166.35 -1.71,-244.71 20.55,-82.11 64.29,-144.53 112.37,-208.22 37.8,-50.08 75.15,-103.27 87.76,-165.91 13.08,31.13 27.98,61.56 44.31,91.38 1.36,2.48 6.86,3.2 5.75,-0.85 -19.57,-71.24 -31.31,-144.76 -40.33,-217.86 -9.35,-75.75 -14.46,-149.89 -9.74,-225.58 7.93,-127.17 41.56,-264.51 135.11,-344.08 40.37,-34.33 89.58,-56.03 141.29,-60.92 4.02,46.2 15.81,88.55 26.54,133.4 0.6,2.51 4.59,2.94 4.18,-0.06 -5.91,-42.8 -3.14,-89.18 3.16,-134.07 1.57,0.08 3.12,0.09 4.69,0.21 34.81,2.42 32.51,-47.99 5.99,-61.78 1.46,-7.25 2.95,-14.42 4.45,-21.42 14.71,-68.44 38.33,-134.22 74.18,-191.76 76.35,-122.58 193.82,-204.52 329.9,-226.83 76.28,-12.51 156.51,-4.09 232.14,19.29 16.67,5.15 35.79,-6.19 37.7,-25.31 2.17,-21.69 -14.16,-36.03 -30.93,-42.48 -148.49,-57.05 -316.22,-32.8 -446.43,49.62 -125.73,79.6 -208.36,215.45 -237.93,372.61 -3.6,19.14 -6.27,38.96 -7.77,58.96 -122.91,-5.63 -227.91,84.96 -281.29,201.6 -61.81,135.05 -67,302.51 -44.41,453.57 3.53,23.6 8.35,46.77 14.3,69.54 -8.78,1.36 -15.59,7.45 -15.44,19.71 0.98,80.54 -44.85,145.61 -87.57,204.06 -47.02,64.34 -91.25,128.14 -113.46,209.08 -43.74,159.36 -23.38,343.44 72.46,484.05 30.12,44.18 72.8,82.42 107.79,124.94 -44.07,23.68 -69.75,89.16 -77.84,138.3"
         style="fill:#000000;fill-opacity:1;fill-rule:nonzero;stroke:none"
         id="path24" />
      <path
         d="m 4006.26,3608.39 c 35.23,-44.17 72.86,-87.3 120.05,-116.17 45.81,-28.02 96.9,-42.01 150.27,-43.37 50.26,-1.28 103.74,10.23 150.89,32.48 25.41,11.99 49.21,27.09 72,44.57 7.88,6.04 15.47,13.04 23.09,20.06 -87.6,17.16 -169.28,71.62 -209.98,155.35 -14.54,29.92 33.32,61.03 52.03,36.5 35.13,-46.04 74.62,-86.75 125.57,-111.14 47.37,-22.68 100.38,-31.82 153.05,-25.01 109.61,14.17 210.87,98.99 258.04,209.39 2,4.68 8.74,3.29 7.19,-2.1 -37.54,-130.62 -141.35,-234.16 -262.83,-261.82 -30.11,-6.86 -61.51,-8.56 -92.68,-5.58 -9.51,-15.07 -22.2,-28.76 -32.89,-40.48 -22.31,-24.45 -48.26,-44.82 -75.21,-62.39 -54.4,-35.48 -114.1,-54.85 -175.93,-57.49 -121.57,-5.19 -262.61,69.82 -309.96,194.02 -10.73,28.13 29.36,55.67 47.3,33.18"
         style="fill:#000000;fill-opacity:1;fill-rule:nonzero;stroke:none"
         id="path26" />
      <path
         d="m 4951.88,7902.16 c 5.38,12.51 20.3,16.54 29.11,7.6 11.33,-11.5 11.98,-34.95 18.56,-50.5 7.39,-17.49 17.94,-32.74 30.61,-45.87 26.56,-27.55 59.65,-46.29 97.25,-49.31 3.84,-0.31 3.36,-5.76 -0.2,-6.65 -41.36,-10.27 -85.65,-1.45 -118.72,25.72 -1.24,-15.71 -4.25,-31.49 -8.59,-47.15 -8.37,-30.19 -24.59,-67.93 -52.54,-82.1 -1.66,-0.84 -3.39,0.12 -3.26,2.16 1.7,27.55 15.4,55.3 20.2,82.73 5.42,31 2.23,61.21 -0.67,91.81 -0.22,2.38 0.04,4.7 0.64,6.91 -9.8,18.17 -21.3,43.94 -12.39,64.65"
         style="fill:#000000;fill-opacity:1;fill-rule:nonzero;stroke:none"
         id="path28" />
      <path
         d="m 5001.23,8030.74 c 18.6,11.76 42.83,14.6 62.93,22.88 20.73,8.55 41.3,18.41 61.17,29.36 40.66,22.4 81.75,50.19 115.67,83.88 0.24,0.23 0.66,-0.07 0.41,-0.37 -32.05,-39.19 -64.44,-73.33 -105.16,-101.32 -20.99,-14.42 -42.62,-26.67 -65.47,-36.74 -20.28,-8.94 -45.48,-22.56 -67.1,-21.19 -13.05,0.82 -12.64,17.06 -2.45,23.5"
         style="fill:#000000;fill-opacity:1;fill-rule:nonzero;stroke:none"
         id="path30" />
      <path
         d="m 4820.33,6033.97 c 82.73,95.2 203.69,140.78 317.79,120.47 63.15,-11.25 120.98,-45.3 166.51,-92.53 44.12,-45.75 85.26,-112.56 88.97,-182.23 1.13,-21.15 -30.2,-36.75 -38.5,-14.98 -20.74,54.38 -39.18,105.4 -76.53,148.6 -35.29,40.82 -80.38,71.41 -130.55,86.26 -101.43,30.02 -220.12,-8.61 -297.42,-92.86 -90.45,-98.58 -110.39,-247.49 -97.26,-376.52 13.94,-137.05 66.85,-261.05 113.71,-385.55 26.05,-69.19 51.7,-138.74 71.03,-210.95 9.22,-34.48 16.68,-69.1 21,-105.01 4.68,-38.89 3.88,-77.89 5.1,-117.16 0.07,-2.27 -3.54,-3.31 -3.61,-0.9 -2.25,72.61 -26.56,146.51 -48.08,213.58 -21.9,68.23 -49.57,133.71 -77.65,198.78 -56.36,130.67 -113.26,267.87 -125.77,415.73 -11.57,136.62 19.92,290.16 111.26,395.27"
         style="fill:#000000;fill-opacity:1;fill-rule:nonzero;stroke:none"
         id="path32" />
      <path
         d="m 5056.93,5654.3 c 24.71,-6.79 51.08,-12.6 74.63,-22.91 23.05,-10.1 44.46,-26.2 63.56,-43.13 40.77,-36.13 71.51,-80.76 84.22,-137.85 4.77,-21.46 -27.24,-30.9 -36.17,-14.08 -22.66,42.69 -45.7,85.99 -76.04,122.59 -30.45,36.72 -68.4,74.97 -111.18,93.01 -1.44,0.61 -0.36,2.73 0.98,2.37"
         style="fill:#000000;fill-opacity:1;fill-rule:nonzero;stroke:none"
         id="path34" />
      <path
         d="m 4125.72,4270.52 c 40.05,145.41 155.92,262.13 295.95,265.96 73.49,2.01 145.62,-27.85 188.61,-92.47 13.71,-20.59 -16.08,-45.46 -31.63,-28.21 -78.3,86.84 -212.7,95.46 -305.36,16.03 -98.59,-84.53 -132.29,-226.7 -115.6,-353.53 5.02,-38.16 14.81,-75.07 28.3,-110.17 13.43,-34.97 26.15,-74.51 46.9,-104.82 1.07,-1.56 -1.32,-3.59 -2.43,-2.17 -22.13,28.21 -46.42,52.34 -64.16,84.77 -17.77,32.5 -31.4,68.44 -41.02,105.16 -18.68,71.34 -19.76,146.06 0.44,219.45"
         style="fill:#000000;fill-opacity:1;fill-rule:nonzero;stroke:none"
         id="path36" />
      <path
         d="m 5586.43,6779.37 c 19.14,8.65 40.2,8.51 60.05,14.81 20.01,6.36 39.34,15.97 57.91,26.64 38.49,22.1 74.99,55.31 99.43,95.11 0.7,1.14 2.71,0.48 2.05,-0.94 -21.17,-45.44 -47.26,-84.99 -84.03,-117.21 -18.4,-16.12 -38.77,-29.24 -60.18,-39.54 -20.71,-9.97 -48.42,-24.37 -70.8,-21.29 -20.49,2.83 -26.35,32.51 -4.43,42.42"
         style="fill:#000000;fill-opacity:1;fill-rule:nonzero;stroke:none"
         id="path38" />
      <path
         d="m 3344.93,5276.99 c 53.28,125.66 157.75,216.32 278.09,251.35 63.27,18.42 130.78,21 190.55,-4.43 1.89,-0.8 0.91,-3.69 -1.03,-3.62 -106.84,3.85 -214.52,-21.17 -301.69,-98.78 -85.99,-76.57 -134.35,-192.83 -145.44,-309.92 -6.53,-68.84 3.14,-135.69 23.35,-199.44 3.81,-12 -13.83,-26.29 -21.02,-14.75 -65.51,105.16 -73.99,258.85 -22.81,379.59"
         style="fill:#000000;fill-opacity:1;fill-rule:nonzero;stroke:none"
         id="path40" />
      <path
         d="m 3355.36,6298.85 c 17.02,42.84 38.99,83.87 64.92,121.29 13.38,19.29 27.95,37.48 43.46,54.77 15.58,17.37 31.47,36.48 52.99,43.59 12.12,4 24.72,-9.39 18.37,-22.72 -8.75,-18.34 -25.14,-30.56 -38.58,-44.79 -14.61,-15.48 -28.13,-32.25 -40.72,-49.73 -25.9,-35.92 -47.35,-75.18 -64.17,-116.8 -16.55,-40.92 -28.42,-83.13 -37.39,-126.36 -2.37,-11.43 -4.67,-22.96 -6.84,-34.55 37.3,52.08 84.18,96.16 138.39,124.68 32.58,17.15 49.17,-27.55 19.34,-47.44 -90.56,-60.37 -162.12,-154.12 -189.39,-266.64 -27.26,-112.45 -5.49,-224.34 45.09,-320.16 28.87,-54.68 69.99,-102.68 116.88,-138.91 2.13,-1.65 -0.16,-5.38 -2.5,-4.49 -105.5,40.29 -183.13,137.51 -211.85,256.03 -29.02,119.72 -4.29,249.88 58.19,356.96 -3.02,25.61 -3.74,51.47 -0.94,78.49 4.83,46.68 17.45,93.25 34.75,136.78"
         style="fill:#000000;fill-opacity:1;fill-rule:nonzero;stroke:none"
         id="path42" />
      <path
         d="m 3639.38,5256.15 c 105.05,-76.21 168.36,-207.54 169.22,-349.49 0.43,-70.44 -12.91,-142.04 -41.93,-206.78 -36.21,-80.74 -94.75,-146.84 -148.18,-214.36 -64.34,-81.31 -126.69,-174.76 -133.21,-283.82 -1.23,-20.59 -33.89,-25.79 -36.58,-4.38 -22.8,181.43 133.57,297.83 230.49,425.18 0.35,1.55 0.84,3.14 1.71,4.84 29.46,57.57 44.16,119.69 36.3,183.74 -7.61,62 -29.3,126.48 -72.13,167.42 -1.21,1.16 0.98,3.34 2.16,2.41 50.92,-39.84 87.56,-93.11 98.87,-162.6 3.47,-21.26 4.94,-43.12 4.28,-64.97 34.22,98.24 35.67,207.26 6.49,305.92 -22.17,74.92 -62.96,146.16 -119.38,194.24 -1.45,1.24 0.46,3.69 1.89,2.65"
         style="fill:#000000;fill-opacity:1;fill-rule:nonzero;stroke:none"
         id="path44" />
      <path
         d="m 4425.23,5457.65 c 154.05,-0.84 242.31,-167.27 272.59,-312.62 35.17,-168.82 36.33,-352.68 22.96,-527.24 -6.55,-85.46 -18.11,-168.18 -39.25,-250.52 5.81,-0.34 10.86,-3.9 11.71,-11.76 7.11,-66.35 23.67,-129.41 47.77,-189.76 11.64,-29.15 26.02,-56.03 40.43,-83.44 15.73,-29.91 28,-60.9 48.09,-87.79 0.47,-0.62 -0.48,-1.37 -0.97,-0.87 -23.24,23.58 -50.06,45.25 -69.38,73.05 -17.86,25.72 -32.5,55.31 -45.52,84.35 -23.16,51.63 -38.54,107.93 -47.46,165.41 -0.03,0.08 -0.08,0.15 -0.07,0.25 0,0.05 0,0.09 0.01,0.13 -1.59,10.25 -3.04,20.53 -4.22,30.84 -0.83,7.27 3.01,13.08 8.27,16.44 13.38,154.67 27.37,308.91 20.05,463.47 -3.86,81.62 -11.65,163.21 -25.27,243.03 -12.89,75.53 -33.34,151.56 -73.01,214.38 -42.98,68.06 -104.69,111.54 -180.1,125.66 -27.66,5.18 -9.63,47.11 13.37,46.99"
         style="fill:#000000;fill-opacity:1;fill-rule:nonzero;stroke:none"
         id="path46" />
      <path
         d="m 3462.47,5604.24 c 110.61,133.56 298.98,218.68 445.3,127.58 60.62,-37.74 109.76,-107.53 113.75,-187.34 1.98,-39.66 -6.65,-79.78 -3.6,-119.35 3.8,-49.24 35.85,-75.53 81.46,-61.77 50.56,15.25 85.92,64.84 134.74,84.54 37.56,15.15 76.86,11.65 101.99,-21.85 1.14,-1.51 -1.29,-3.53 -2.43,-2.16 -35.55,42.38 -96.13,9.91 -131.98,-19.17 -32.78,-26.6 -63.11,-56.81 -102.72,-69.43 -33.18,-10.56 -69.04,-6.07 -92.9,20.95 -21.59,24.46 -26.07,60.81 -27.04,94.28 -1.07,37.17 2.27,75.74 -6.78,111.62 -8.52,33.77 -26.48,63.21 -49.01,87.06 -50.28,53.21 -123.19,76.88 -194.19,65.15 -89.95,-14.86 -166.5,-73.64 -235.8,-137.51 -18.03,-16.62 -49.39,4.94 -30.79,27.4"
         style="fill:#000000;fill-opacity:1;fill-rule:nonzero;stroke:none"
         id="path48" />
      <path
         d="m 3139.93,5439.73 c 2.28,0.38 3.31,-2.9 0.97,-3.95 -60.72,-27.33 -116.59,-72.08 -154.76,-131.58 0.37,0.15 0.71,0.35 1.09,0.46 24.67,7.63 48.7,11.74 74.02,13.96 11.95,1.05 23.89,2.13 35.8,1.72 12.53,-0.44 26.5,-5.08 38.89,-3.68 2.19,0.25 1.69,-3.13 -0.11,-3.62 -13.57,-3.72 -26.6,-13.82 -39.88,-19.36 -11.7,-4.89 -23.83,-8.35 -35.86,-11.95 -24.87,-7.45 -48.61,-11.92 -74.01,-13.91 -9.32,-0.73 -13.74,4.44 -14.56,11.14 -1.07,-2.05 -2.19,-4.05 -3.21,-6.13 -38.91,-78.82 -44.91,-174.69 -22.26,-256.98 8.2,-29.81 -36.77,-55.42 -46.86,-25.17 -61.78,185.19 54.35,417.8 240.74,449.05"
         style="fill:#000000;fill-opacity:1;fill-rule:nonzero;stroke:none"
         id="path50" />
      <path
         d="m 3546.06,4481.51 c 24.15,30.69 50.19,59.28 78.31,85.57 28.7,26.84 60.01,49.34 89.56,74.85 2.41,2.09 5.45,-1.24 2.87,-3.47 -48.42,-41.8 -86.27,-102.01 -119.48,-158.15 -32.63,-55.16 -59.6,-113.86 -81.8,-174.46 -44.48,-121.34 -64.42,-253.18 -54.06,-380.8 6.07,-74.62 18.19,-146.37 35.43,-218.16 7.7,-32.03 -42.31,-48.35 -55.41,-21.56 -59.79,122.2 -71.78,268.59 -54.44,408.35 17.3,139.44 73.48,279.16 159.02,387.83"
         style="fill:#000000;fill-opacity:1;fill-rule:nonzero;stroke:none"
         id="path52" />
      <path
         d="m 3317.66,4314.53 c 42.19,67.8 73.49,136.92 89.3,216.57 15.52,78.13 15.93,158.07 14.34,236.72 -0.01,0.65 0.9,1.12 1.17,0.46 53.78,-128.64 20.92,-286.43 -40.59,-411.21 -32.06,-65.05 -77.04,-130.93 -91.89,-203.3 -11.8,-57.48 0.2,-120.41 39.36,-159 20.14,-19.86 -15.61,-52.83 -35.44,-39.57 -49.5,33.09 -65.97,98.87 -57.45,161.5 9.91,72.91 43.18,136.74 81.2,197.83"
         style="fill:#000000;fill-opacity:1;fill-rule:nonzero;stroke:none"
         id="path54" />
      <path
         d="m 4870.94,4808.26 c 67.97,-32.86 116.81,-90.36 153.45,-159.95 19.09,-36.24 34.66,-74.9 44.15,-115.35 0.76,2.38 1.49,4.77 2.27,7.14 31.27,96.02 83.94,180.06 141.24,260.27 2.04,2.86 7.59,1.4 5.64,-2.58 -40.98,-83.67 -67.11,-175.29 -92.79,-264.87 -26.43,-92.22 -40.12,-186.77 -62.21,-279.86 -3.85,-16.21 -29.28,-24.04 -31.78,-3.8 -5.73,46.3 -3.61,94.06 3.44,141.44 -5,2.05 -8.94,6.22 -10.65,13.07 -17.55,70.39 -30.94,142.69 -58.97,208.73 -27.83,65.56 -66.15,125.77 -104.17,184.18 -4.73,7.27 3.95,14.68 10.38,11.58"
         style="fill:#000000;fill-opacity:1;fill-rule:nonzero;stroke:none"
         id="path56" />
      <path
         d="m 3815.66,4338.85 c 49.81,82.21 117.39,147.94 197.79,191.18 3.35,1.81 6.74,-2.94 3.28,-5.49 -121.99,-89.87 -217.88,-237.52 -242.29,-395.46 -23.68,-153.24 20.35,-309.06 110.45,-421 23.88,-29.68 50.7,-57.23 80.06,-80.33 0.15,-0.12 0.31,-0.24 0.46,-0.36 20.77,-24.74 43.37,-47.87 67.87,-68.6 12.18,-13.72 25.4,-26.47 39.85,-37.55 -9.06,-14.49 -26.67,-25.32 -42.5,-21.13 -72.99,19.32 -139.68,76.82 -187.8,137.31 -49.22,61.86 -86.5,135.95 -107.15,215.97 -41.63,161.31 -7.16,341.62 79.98,485.46"
         style="fill:#000000;fill-opacity:1;fill-rule:nonzero;stroke:none"
         id="path58" />
      <path
         d="m 4344.81,7207.99 c 21.55,37.94 39.11,72.06 72.29,99.86 33.37,27.95 71.63,46.02 112.06,54.87 77.01,16.87 172.92,7.41 225.94,-57.93 20.43,-25.16 -16.27,-55.07 -38.67,-43.16 -58.02,30.85 -116.73,53.1 -184,41.07 -31.9,-5.7 -64.06,-16.07 -93.92,-30.71 -31.52,-15.46 -68.03,-36.04 -89.9,-66.48 -1.87,-2.6 -5.53,-0.57 -3.8,2.48"
         style="fill:#000000;fill-opacity:1;fill-rule:nonzero;stroke:none"
         id="path60" />
      <path
         d="m 3994.28,6970.11 c 6.05,4.58 13.78,-0.52 9.3,-8.28 -33.55,-58.21 -61.1,-120.93 -73.31,-187.91 -12.08,-66.26 -7.81,-136.99 9.98,-199.87 6.57,-23.22 -25.96,-41.84 -36.37,-19.54 -60.67,130.06 -28.04,326.01 90.4,415.6"
         style="fill:#000000;fill-opacity:1;fill-rule:nonzero;stroke:none"
         id="path62" />
      <path
         d="m 5974.07,7829.59 c 3.65,24.39 5.63,48.7 5.56,73.3 8.86,-18.12 17.06,-36.55 24.33,-55.38 79.43,-205.81 50.43,-443.6 -73.63,-624.96 19.22,78.5 33.23,158.33 41.92,239 13.08,121.46 14.98,246.56 1.82,368.04 z m -1698.19,-36.73 c 20.16,-28.25 65.75,-36.15 96.82,-42.96 34.73,-7.61 69.62,-11.21 105.46,-8.52 35.07,2.64 70.89,7.97 104.81,20.08 26.4,9.41 68.08,21.28 85.22,47.74 0.61,0.94 0.5,2.45 -0.68,2.7 -12.14,2.55 -25.38,-2.08 -37.67,-4.26 -16.04,-2.84 -31.91,-6.6 -48.04,-8.63 -31.83,-4.01 -63.44,-6.39 -95.2,-4.48 -29.83,1.79 -59.94,5.47 -89.02,12.2 15.83,31.43 27.36,65.01 43.92,96.24 15.68,29.57 33.93,57.73 53.51,84.45 71.99,98.2 166.63,176.27 272.74,221.71 107.6,46.06 228.41,60.25 340.5,49.46 -3.42,-4.76 -6.86,-9.51 -10.8,-13.96 -2.14,-2.42 1.37,-4.55 3.33,-2.96 11.88,9.63 28.19,16.58 41.35,24.17 11.44,6.6 23.15,12.51 35.1,17.78 24.04,10.59 48.9,19.73 74.02,25.86 49.43,12.06 100.53,15.52 149.23,4.12 50.51,-11.82 98.72,-35.97 138.93,-70.38 39,-33.38 70.84,-78.63 99.47,-122.64 14.7,-22.6 46.51,5.53 40.47,28.39 -14.35,54.34 -44.97,100.82 -84.36,137.39 10.08,-1.19 20.13,-2.74 30.18,-5.04 30.06,-6.88 59.61,-17.06 87.22,-31.17 55.26,-28.24 105.42,-69.1 144.32,-120.31 8.08,-10.63 15.57,-21.73 22.56,-33.19 -11.54,10.24 -23.9,19.37 -36.93,27.08 -14.55,8.62 -30.41,16.38 -46.49,21.31 -7.37,2.26 -15.31,4.08 -23.15,3.31 -5.65,-0.55 -11.02,-4.26 -16.07,-4.14 -5.04,0.12 -10.74,-8.61 -4.89,-11.77 3.66,-1.99 4.84,-6.66 8.17,-10.35 4.61,-5.11 11.11,-8.16 16.76,-11.58 13.18,-7.96 26.04,-16.14 37.71,-26.59 21.2,-19 39.81,-42.99 54.42,-68.38 10.27,-17.85 19.4,-36.66 26.24,-56.54 13.06,-86.98 23.45,-174.66 26.16,-263.4 5.54,-181.51 -17.94,-362.36 -61.19,-540.04 -21.58,-88.69 -49.99,-175.72 -84.57,-259.96 -34.69,-84.5 -77.87,-164.25 -116.34,-246.74 -2.85,-6.12 5.11,-7.45 8.2,-3.76 67.31,80.33 116.89,177.85 159.98,275.04 39.57,89.25 71.64,181.42 96.22,275.59 44.05,52.31 80.4,110.86 107.34,173.75 47,109.73 65.02,230.92 49.1,349.38 -7.51,55.87 -21.85,111.08 -42.43,163.56 -10.16,25.92 -21.89,51.18 -35.37,75.55 -11.13,20.13 -22.68,42.91 -38.2,60.65 -14.54,54.29 -38.38,105.22 -69.07,149.72 -41.33,59.93 -96.59,106.42 -159.5,136.77 -62.56,30.18 -136.51,50.9 -206.84,40.23 -4.51,-0.69 -8.37,-2.34 -11.59,-4.65 -33.91,17.27 -70.06,28.8 -105.71,33.8 -57.89,8.11 -117.85,1.09 -173.97,-21.4 -28.02,-11.22 -54.07,-25.57 -78.66,-44.61 -12.19,-9.44 -23.99,-19.67 -35.03,-30.73 -4.59,-4.59 -8.45,-9.65 -12.18,-14.8 -0.16,0.14 -0.33,0.27 -0.56,0.36 -64.65,24.45 -131.63,34.68 -201.23,29.11 -124.86,-9.98 -247.29,-63.83 -349.38,-148.1 -50.28,-41.5 -95.03,-92.3 -132.84,-147.46 -34.35,-50.13 -70.9,-109.94 -88.01,-170.44 -13.39,4.63 -26.88,8.12 -40.42,7.81 -18.79,-0.42 -35.88,-23.41 -23.07,-41.37"
         style="fill:#000000;fill-opacity:1;fill-rule:nonzero;stroke:none"
         id="path64" />
      <path
         d="m 5372.32,8186.3 c 54.31,-19.12 96.39,-53.29 119.11,-111.91 11.12,-28.7 15.96,-58.57 14.15,-90.39 -1.67,-29.38 -7.14,-71.72 -33.68,-87.27 -7.83,-4.58 -21.88,-3.06 -24.83,7.3 -6.54,22.89 9.57,50.47 12.31,74.48 2.87,24.95 1.05,51.53 -3.75,75.63 -10.14,50.91 -40.5,107.01 -85.5,126.87 -3.17,1.4 -0.79,6.34 2.19,5.29"
         style="fill:#000000;fill-opacity:1;fill-rule:nonzero;stroke:none"
         id="path66" />
      <path
         d="m 5279.57,5258.74 c 14.58,31.39 32.59,61.36 48.01,92.38 14.5,29.16 28.36,58.63 41.56,88.4 27.28,61.48 51.94,124.22 73.94,187.77 22.23,64.27 41.36,129.72 58.32,195.58 16.92,65.7 29.74,132.51 49.42,197.42 1.09,3.63 8.51,5.67 8.6,0.44 1.23,-67.34 -10.92,-134.46 -24.84,-200.18 -14.36,-67.81 -32.73,-134.56 -54.1,-200.49 -21.23,-65.53 -45.47,-129.93 -72.93,-193.11 -27.19,-62.54 -55.22,-127.83 -92.11,-185.34 -11.86,-18.48 -46.19,-5.1 -35.87,17.13"
         style="fill:#000000;fill-opacity:1;fill-rule:nonzero;stroke:none"
         id="path68" />
      <path
         d="m 4018.13,3461.28 c 94.69,-177.99 303.23,-272.85 499.23,-227.03 95.85,22.41 181.98,76.57 244.73,152.2 73.41,88.46 115.76,198.76 152.81,306.24 23.23,67.4 44.03,135.71 62.8,204.49 9.42,34.54 17.95,69.28 26.44,104.05 8.3,33.95 14.99,68.84 26.9,101.71 0.62,1.73 4.15,1.89 4.17,-0.28 0.38,-32.22 -5.68,-64.47 -10.85,-96.2 -5.36,-32.83 -12.15,-65.47 -19.09,-98 -14.12,-66.17 -30.74,-131.72 -49.77,-196.66 -34.31,-117.04 -73.37,-235.62 -146.33,-334.96 -128.34,-174.71 -368.83,-250.75 -572.96,-174.07 -115.26,43.29 -212,127.62 -269.9,236.27 -15.17,28.46 36.6,50.84 51.82,22.24"
         style="fill:#000000;fill-opacity:1;fill-rule:nonzero;stroke:none"
         id="path70" />
      <path
         d="m 5645.27,6379.8 c 123.75,193.27 208.81,407.42 245.25,634.41 10.32,64.33 16.13,129.33 21.97,194.18 0.55,6.16 12.06,7.48 12.4,0.63 5.85,-115.45 -10.29,-232.71 -35.45,-345.22 -25.46,-113.81 -64.49,-224.97 -114.42,-330.32 -28.57,-60.32 -60.79,-119.01 -97.4,-174.83 -13.76,-20.98 -47.01,-1.75 -32.35,21.15"
         style="fill:#000000;fill-opacity:1;fill-rule:nonzero;stroke:none"
         id="path72" />
      <path
         d="m 4173.45,4907.97 c 9.83,24.33 26.63,47.98 41.37,69.73 15.62,23.04 33.08,44.8 52.63,64.63 18.89,19.16 39,36.81 61.16,52.1 21.77,15.03 45.55,25.9 68.82,38.29 0.3,0.16 0.6,-0.29 0.29,-0.47 -43.23,-25.52 -82.99,-65 -115.84,-102.63 -16.4,-18.79 -31.84,-38.5 -45.6,-59.31 -15.03,-22.74 -24.47,-46.89 -36.88,-70.83 -7.51,-14.49 -32.95,-8.84 -25.95,8.49"
         style="fill:#000000;fill-opacity:1;fill-rule:nonzero;stroke:none"
         id="path74" />
      <path
         d="m 3129.4,6108.65 c 15.11,43.5 34.34,85.41 57.58,125.16 45.63,78.08 104.63,148.69 175.88,204.62 20.25,15.9 41.33,30.73 63.17,44.37 21.97,13.72 45.09,28.07 70.35,34.64 15.65,4.07 21.91,-15.93 10.66,-24.84 -21.91,-17.35 -48.62,-29.29 -72.06,-44.53 -22.33,-14.53 -43.86,-30.3 -64.46,-47.2 -43.64,-35.78 -83.86,-75.29 -119.32,-119.26 -35.19,-43.63 -65.35,-91.18 -90.25,-141.39 -25.1,-50.61 -47.8,-106.62 -59.51,-162.01 -0.26,-1.21 -2.39,-1.22 -2.17,0.15 7.38,44.69 15.19,87.3 30.13,130.29"
         style="fill:#000000;fill-opacity:1;fill-rule:nonzero;stroke:none"
         id="path76" />
      <path
         d="m 5793.69,6656.41 c -57.22,-119.77 -115.18,-245.19 -217.7,-333.84 -91.75,-79.33 -207.01,-118.37 -327.45,-98 -9,1.52 -11.61,-10.95 -3.79,-14.63 106.51,-50.14 236.14,-20.17 332.86,41.44 -1.2,-31.44 -0.75,-63.01 -2.28,-94.43 -2.27,-46.64 -5.03,-93.27 -10.26,-139.68 -10.84,-96.27 -28.81,-191.87 -55.83,-284.96 -53.94,-185.81 -139.84,-363.32 -255.38,-518.64 -65.76,-88.4 -140.22,-171.79 -218.31,-249.45 -19.04,-18.93 13.2,-57.08 35.13,-40.39 100.36,76.39 185.52,169.11 257.77,271.47 -18.32,-66.01 -33.96,-133.19 -51.4,-198.89 -26.19,-98.66 -53.87,-197.15 -83.55,-294.82 -29.28,-96.35 -61.21,-191.89 -95.76,-286.47 -35.22,-96.46 -74.82,-191.16 -108,-288.34 -4.56,-13.39 1.73,-26.33 11.37,-33.48 -11.24,-23.49 -23.97,-46.2 -38.05,-68.16 -32.81,-51.15 -74.1,-97.58 -120.39,-136.89 -17.32,-14.7 4.22,-47.46 22.55,-33.14 52.43,40.95 95.56,89.93 129.5,147.19 15.68,26.47 28.68,54.39 39.36,83.24 3.59,9.7 7.68,20.58 11.22,31.88 44.1,87.4 78.37,179.1 111.7,271.13 34.3,94.72 65.98,190.37 95,286.83 28.85,95.88 54.43,192.37 76.13,290.11 21.86,98.52 43.28,201.84 48.69,302.9 24.94,40.04 48.19,81.18 69.74,123.16 92.25,179.72 149.6,378.15 166.68,579.47 4.62,54.4 6.65,109.8 3.74,164.34 -2.36,44.17 -5.19,89.26 -15.27,132.51 118.73,87.21 193.1,225.35 242.25,361.19 11.11,30.7 -34.38,60.61 -50.27,27.35"
         style="fill:#000000;fill-opacity:1;fill-rule:nonzero;stroke:none"
         id="path78" />
      <path
         d="m 4534.87,5840.7 c -184.6,4.94 -341.68,139.69 -391.32,314.45 -54.54,192 15.01,398.53 134.5,551.01 70.92,90.51 160.56,169.7 255.29,234.54 4.28,2.93 -0.56,9.6 -4.96,7.29 -194.22,-101.91 -363.88,-259.39 -428.65,-474.86 -60.17,-200.14 -20.12,-426.19 140.89,-568.13 81.9,-72.21 189.64,-116.27 299.57,-107.57 27.93,2.21 19.63,42.61 -5.32,43.27"
         style="fill:#000000;fill-opacity:1;fill-rule:nonzero;stroke:none"
         id="path80" />
      <path
         d="m 5943.67,7735.97 c -132.18,-20.98 -195.09,-161.7 -227.22,-275.66 -21.71,-77.02 -38.43,-155.53 -77.86,-226.09 -34.96,-62.57 -83.01,-117.26 -137.58,-163.44 -221.11,-187.15 -527.86,-231.36 -744.01,-425.39 -108.52,-97.42 -189.78,-234.46 -187.51,-383.56 0.03,-2 3.56,-2.74 3.66,-0.45 13.07,302 323.88,456.28 563.39,563.47 124.28,55.61 249.7,112.47 357.51,197 50.89,39.9 98.05,85.28 135.96,137.87 41.88,58.1 66.72,122.84 86.51,191.25 39.06,135.07 79.15,315.08 241.42,347.01 24.04,4.73 7.82,41.49 -14.27,37.99"
         style="fill:#000000;fill-opacity:1;fill-rule:nonzero;stroke:none"
         id="path82" />
      <path
         d="m 5844.11,8103.29 c -88.61,51.7 -203.77,-11.33 -263.34,-79.7 -81.1,-93.05 -98.93,-222.6 -139.32,-335.13 -73.46,-204.67 -215.92,-378.35 -393.7,-501.8 -100.3,-69.65 -213.06,-123.44 -331.01,-155.22 -2.12,-0.57 -0.68,-3.71 1.26,-3.35 204.38,38.18 388.05,140.74 532.05,290.26 72.3,75.07 133.17,160.85 179.97,253.99 52.44,104.35 73.64,219.33 120.96,325.44 26.52,59.48 63.9,112.54 120.11,147.09 52.62,32.35 104.7,35.55 163.41,21.32 24.01,-5.81 27.12,26.89 9.61,37.1"
         style="fill:#000000;fill-opacity:1;fill-rule:nonzero;stroke:none"
         id="path84" />
      <path
         d="m 4813.59,6443.81 c -30.1,83.04 -2.61,167.52 54.92,231.43 11.41,12.68 -7.83,35.27 -22.13,25.43 -81.89,-56.33 -94.13,-180.6 -38.48,-259.58 2.23,-3.17 7.11,-1.18 5.69,2.72"
         style="fill:#000000;fill-opacity:1;fill-rule:nonzero;stroke:none"
         id="path86" />
      <path
         d="m 4926.44,6124.8 c -64.29,-36.61 -120.81,-82.02 -173.11,-134.25 -25.86,-25.82 -51.02,-52.88 -73.59,-81.64 -22.12,-28.18 -45.88,-58.44 -56.05,-93.1 -1.55,-5.29 4.37,-13.89 10.22,-9.32 25.84,20.24 44.3,47.89 65.47,72.79 23.78,27.96 47.86,55.47 73.89,81.38 51.86,51.62 109.89,97.88 168.73,141.27 12.92,9.53 -1.81,30.7 -15.56,22.87"
         style="fill:#000000;fill-opacity:1;fill-rule:nonzero;stroke:none"
         id="path88" />
      <path
         d="m 4764.73,5489.78 c -110.49,93.16 -282.49,129.09 -421.9,95.39 -1.09,-0.26 -0.47,-1.89 0.47,-1.89 72.12,-0.56 144.07,-8.48 212.86,-30.96 68.42,-22.36 127.92,-59.49 187.37,-99.01 22.81,-15.17 39.8,20.79 21.2,36.47"
         style="fill:#000000;fill-opacity:1;fill-rule:nonzero;stroke:none"
         id="path90" />
      <path
         d="m 3848.77,5765.17 c -24.68,21.33 -51.05,36.41 -70.7,63.44 -19.3,26.55 -34.09,56.92 -39.76,89.42 -13.33,76.36 19.28,141.43 64.33,200.48 0.89,1.17 -0.58,2.74 -1.82,2.09 -71.37,-37.16 -105.09,-129.67 -96.75,-206.69 7.73,-71.34 57.2,-161.61 130.36,-183.74 21.38,-6.47 28.16,23.06 14.34,35"
         style="fill:#000000;fill-opacity:1;fill-rule:nonzero;stroke:none"
         id="path92" />
      <path
         d="m 4219.46,6920.49 c -91.76,-6.04 -176.97,-68.06 -230.35,-139.55 -33.62,-45.03 -59,-96.68 -72.17,-151.11 -4.54,8.31 -9.34,16.49 -14.61,24.42 -13.5,20.34 -38.51,1.87 -27.41,-18.66 13.39,-24.77 24.14,-50.6 32.21,-77.13 -0.46,-14.08 -0.13,-28.22 1.25,-42.39 0.66,-6.68 5.74,-11.87 11.66,-14.5 5.32,-35.4 5.81,-71.59 1.04,-107.83 -5.27,-40.07 -15.87,-79.9 -32.03,-116.96 -8.16,-18.69 -18.24,-36.22 -28.2,-53.97 -10.29,-18.32 -19.43,-37.99 -29.78,-55.94 -0.47,-0.81 0.69,-1.72 1.42,-1.29 20.59,12.15 35.64,21.8 51.57,40.73 13.76,16.34 24.62,35.53 34.42,54.47 21.16,40.91 34.56,84.98 40.17,130.68 7.09,57.69 2.81,117.59 -14.36,173.29 8.75,69.61 33.02,136.13 75.07,193.59 26.08,35.65 56.96,65.33 90.67,93.63 33.8,28.38 71.24,46.54 110.25,66.36 1.02,0.52 0.15,2.22 -0.82,2.16"
         style="fill:#000000;fill-opacity:1;fill-rule:nonzero;stroke:none"
         id="path94" />
      <path
         d="m 5745.78,6856.25 c -93.24,-48.7 -191.42,-87.96 -295.75,-104.6 -39.65,-6.33 -107.68,-22.33 -139.59,11.54 -46.21,49.06 33.6,114.61 70.24,137.66 1.4,0.88 -0.18,3.03 -1.58,2.32 -48.12,-24.06 -107.12,-52.52 -103.02,-116.6 3.73,-58.22 61.78,-79.66 112.07,-81.3 64.3,-2.1 131.64,11.97 193.18,29.42 66.94,18.98 130.97,46.97 188.81,85.75 21.11,14.16 -2.77,47.08 -24.36,35.81"
         style="fill:#000000;fill-opacity:1;fill-rule:nonzero;stroke:none"
         id="path96" />
      <path
         d="m 5520.62,6559.36 c -132.7,-77.23 -292.93,-24.37 -434.17,-68.57 -58.93,-18.43 -114.9,-53.9 -145.37,-108.96 -29.43,-53.21 -28.62,-120.22 -0.87,-173.91 31.79,-61.55 98.67,-103.07 168.42,-95.99 19.73,2.01 13.33,28.69 -3.71,30.15 -77.45,6.59 -146.45,57.82 -152.62,139.12 -6.25,82.38 55.03,144.28 127,172.85 143.23,56.86 314.71,1.65 443.57,101.99 1.83,1.42 -0.26,4.48 -2.25,3.32"
         style="fill:#000000;fill-opacity:1;fill-rule:nonzero;stroke:none"
         id="path98" />
      <path
         d="m 7331.82,7011.66 c 7.93,58.42 5.07,117.38 -8.5,173.05 -27.17,111.44 -99.31,195.31 -197.5,235.35 -55.84,22.78 -113.47,34.16 -174.75,25 -0.38,-0.06 -0.31,-0.65 0.04,-0.65 64.26,-0.38 128.85,-16.18 182.1,-52.69 50.73,-34.78 91.15,-83.52 120.77,-140.15 28.67,-54.79 41.16,-118.64 40.02,-183.25 -0.56,-31.85 -5.12,-63.88 -12.82,-95.08 -8.42,-34.1 -23.85,-64.63 -35.39,-97.51 -6.54,-18.64 14.7,-44.19 29.88,-24.51 33.31,43.16 48.88,106.9 56.15,160.44"
         style="fill:#000000;fill-opacity:1;fill-rule:nonzero;stroke:none"
         id="path100" />
      <path
         d="m 7949.18,5416.4 c 23.58,78.88 34.63,161 32.66,242.25 -2,82.17 -18.33,162.58 -48.42,236.02 -28.39,69.31 -69.85,134.79 -131.45,171.55 39.21,46.23 64.97,107.59 82.36,165.75 18.79,62.85 27.7,128.42 25.93,193.15 -3.5,128.23 -51.43,247.76 -130.01,337.63 -43.77,50.06 -95.59,99.74 -157.58,121.16 -33.14,11.44 -43.91,-44.64 -17.77,-59.41 29.31,-16.56 59.73,-31.24 88.09,-49.57 28.44,-18.38 52.63,-42.71 74.72,-69.26 43,-51.64 75.52,-114.59 93.82,-182.45 19.87,-73.69 22.38,-153.46 9.39,-231.09 -13.32,-79.63 -45.32,-148.31 -80.13,-219.67 -2.77,1.44 -5.51,2.92 -8.35,4.24 -64.75,30.08 -147.74,24.94 -206.73,-26.02 -56.56,19.9 -126.63,38.25 -163.16,92.36 -32.74,48.49 -27.6,111.63 -14.55,169.66 26.61,118.36 87.91,236.03 46.14,354.79 -48.75,138.58 -183.04,183.64 -305.41,216.3 -77.8,20.77 -155.94,37.07 -223.49,84.17 -57.4,40.01 -101.67,102.18 -104.87,180.33 -0.07,1.61 -2.65,2.37 -2.8,0.39 -9.86,-129.2 87.04,-225.55 185.56,-269.96 70.86,-31.95 146.73,-48.03 219.78,-73.62 58.61,-20.53 113.06,-51.46 158.22,-96.27 42.87,-42.56 64.52,-99.12 59.35,-164.93 -4.96,-62.99 -27.58,-124.86 -46.57,-184.87 -17.12,-54.09 -32.45,-111.95 -24.54,-167.99 8.84,-62.7 45.63,-110.27 93.74,-141.67 94.93,-61.99 275.73,-68.31 266.93,-231.15 -1.05,-19.47 26.82,-30.44 35.34,-10.24 23.65,56.09 -1.96,114.26 -35.85,153.76 -35.21,41.04 -81.41,65.58 -129.92,83.87 56.96,21.76 119.61,27.7 173.12,1.06 63.32,-31.5 102.27,-104.5 127.77,-172.57 48.61,-129.81 51.79,-280.01 13.38,-419.36 -10.45,-37.92 -24.65,-75.01 -41.45,-110.49 -8.66,-18.26 -18.03,-36.21 -28.33,-53.52 -10.96,-18.41 -24.59,-35.99 -30.97,-56.75 -6.46,-20.99 10.68,-49.06 32.39,-34.53 30.95,20.7 51.06,65.85 67.81,99.55 18.71,37.67 33.79,77.03 45.85,117.4"
         style="fill:#000000;fill-opacity:1;fill-rule:nonzero;stroke:none"
         id="path102" />
      <path
         d="m 7686.67,6272.75 c -25.47,28.1 -56.91,45.7 -92.72,52.67 18.14,16.79 34.86,35.56 49.6,55.83 19.48,26.79 35.95,56.38 48.12,87.58 6.1,15.62 10.7,31.33 13.81,47.79 3.34,17.65 0.67,30.47 1.54,48.03 0.05,1.06 -1.4,1.33 -1.68,0.23 -2.53,-10.03 -8.46,-19.06 -12.43,-28.45 -2.52,-5.95 -4.35,-12.26 -6.78,-18.27 -5.73,-14.18 -11.73,-28.45 -18.47,-42.15 -13.11,-26.64 -29.63,-51.32 -48.68,-73.51 -18.94,-22.06 -40.31,-41.1 -63.75,-57.03 -11.39,-7.74 -23.47,-15.19 -35.84,-20.9 -9.12,-2.12 -18.06,-5.09 -26.6,-9.03 -6.05,-1.74 -12.04,-3.65 -17.75,-6.51 -7.05,-3.54 -11.41,-8.88 -13.56,-14.81 -1.89,-1.84 -3.75,-3.74 -5.52,-5.76 -13.17,-14.93 2.98,-47.4 21.42,-38.28 6.61,3.26 13.09,6.69 19.53,10.15 9.15,3.19 17.96,8.5 26.5,13.88 17.48,8.64 35.35,15.76 55.12,18.12 36.89,4.41 74.57,-4.14 104.74,-25.29 3.3,-2.32 5.72,3.14 3.4,5.71"
         style="fill:#000000;fill-opacity:1;fill-rule:nonzero;stroke:none"
         id="path104" />
      <path
         d="m 7774.54,5637.4 c -1.19,7.08 -5.75,12.22 -11.43,15.06 2.91,9.01 4.61,18.11 4.72,27.14 0.21,17.05 -18.38,24.57 -29.7,13.38 -15.2,-15.03 -22.05,-39.39 -33.63,-57.59 -12.01,-18.91 -25.88,-37.2 -40.72,-53.61 -31.49,-34.81 -67.48,-65.44 -109.77,-81.26 -3.66,-1.36 -1.57,-6.89 1.77,-6.27 47.23,8.71 94.19,25.25 133.01,58.88 12.82,11.11 27.5,25.44 40.7,41.61 -2.93,-34.19 -6.84,-67.89 -19.13,-101.31 -16.82,-45.72 -43,-87.72 -76.42,-121.66 -29.89,-30.35 -66.12,-54.5 -103.85,-69.95 -38.84,-15.91 -78.62,-20.13 -118.67,-27.84 -8.98,-1.72 -5.25,-15.68 0.91,-17.61 82.57,-25.95 185.59,22.97 249.93,85.46 72.53,70.45 129.42,192.55 112.28,295.57"
         style="fill:#000000;fill-opacity:1;fill-rule:nonzero;stroke:none"
         id="path106" />
      <path
         d="m 7728.62,4443.34 c 51.04,56.92 75.87,134.81 93.93,208.68 35.43,144.91 43.51,295.91 24.01,440.46 -5.36,39.69 -12.56,78.64 -22.64,116.92 -10.26,38.94 -24.3,73.82 -40.15,110.02 -1.36,3.11 -5.06,0.81 -4.53,-2.27 11.14,-63.86 18.9,-129.65 24.85,-194.75 6,-65.8 5.83,-132.1 2.86,-198.71 -2.92,-65.34 -11.57,-130.91 -24.98,-195.39 -13.97,-67.15 -30.26,-138.09 -65.6,-197.56 -17.23,-29 -39.4,-54.13 -66.51,-72.13 -21.18,-14.05 -41.59,-17.36 -63.27,-21.9 2.36,27.13 9.31,53.89 23.85,79.97 4.45,7.98 -5.74,20.24 -13.13,13.99 -70.71,-59.89 -54.63,-172.03 -46.75,-252.54 8.2,-83.8 1.89,-166.27 -27.02,-247.79 -27.58,-77.74 -71.49,-151.72 -130.17,-207.23 -61.49,-58.17 -131.92,-87.27 -206.72,-115.11 -58.8,-21.89 -118.9,-46.64 -163.21,-92.67 5.72,33.28 9.52,66.95 11.79,100.87 0.19,2.82 -4.07,6.39 -5.31,2.37 -21.81,-70.58 -51.46,-138.88 -83.16,-205.36 -32.86,-68.89 -68.43,-134.14 -113.11,-195.41 -75.09,-102.95 -177.3,-200.65 -298.96,-217.42 -52.5,-7.24 -105.65,0.93 -151.88,24.62 21.46,41.12 34.29,83.16 49.37,126.74 0.84,2.44 -2.29,4.95 -3.55,2.21 -18.04,-39.27 -45.32,-76.88 -74.78,-111.34 -1.27,0.91 -2.58,1.76 -3.84,2.69 -28.04,20.77 -53.21,-22.97 -38.27,-48.85 -5.13,-5.33 -10.25,-10.58 -15.28,-15.67 -49.2,-49.79 -104.49,-92.53 -165.66,-121.77 -130.29,-62.28 -273.39,-68.19 -400.12,-13.81 -71.03,30.47 -134.15,80.73 -185.33,141.1 -11.28,13.31 -33.5,14.04 -45.4,-1.05 -13.49,-17.12 -7.45,-38 3.23,-52.45 94.5,-127.96 248.95,-197.72 403.06,-198.26 148.8,-0.51 291.52,69.58 400.98,186.18 13.33,14.19 26.24,29.47 38.26,45.53 100.6,-70.85 237.84,-50.96 345.57,18.67 124.74,80.61 219.17,219.01 281.37,358.5 9.72,21.8 18.12,43.93 25.35,66.32 8.13,-3.57 17.15,-2.1 23.61,8.32 42.49,68.42 116.12,98.64 183.58,124.94 74.24,28.96 145.84,58.95 208.1,115.24 122.58,110.84 204.41,276.98 199.23,447.06 -1.63,53.44 -17.05,108.64 -23.68,163.31 49.89,-3.73 106.75,37.65 140.01,74.73"
         style="fill:#000000;fill-opacity:1;fill-rule:nonzero;stroke:none"
         id="path108" />
      <path
         d="m 5638.31,3132.15 c -53.45,-18.29 -108.37,-34.42 -163.69,-33.37 -53.69,1.02 -104.28,16.69 -150.01,44.25 -43.06,25.95 -81.95,64.42 -109.74,108.54 -14.97,23.77 -26.92,49.3 -36.74,76.29 -3.39,9.34 -6.03,19.32 -8.67,29.34 83.09,-32.65 181.23,-30.67 260.58,18.04 28.34,17.4 4.72,69.36 -24.24,58.75 -54.38,-19.92 -109.56,-33 -165.64,-26.17 -52.13,6.36 -101.73,27.17 -142.48,61.23 -84.79,70.89 -124.54,196.86 -104.93,315.32 0.83,5.01 -5.6,7.46 -7.19,2.08 -38.6,-130.31 -6.77,-273.43 80.77,-362.08 21.7,-21.98 47.26,-40.3 75.14,-54.55 -0.08,-17.82 3.25,-36.18 5.96,-51.81 5.66,-32.61 16.58,-63.74 29.85,-93.05 26.78,-59.17 66.69,-107.61 117.4,-143.09 99.7,-69.76 258.95,-82.37 365.66,-3.13 24.18,17.95 5.19,62.73 -22.03,53.41"
         style="fill:#000000;fill-opacity:1;fill-rule:nonzero;stroke:none"
         id="path110" />
      <path
         d="m 5614.25,5371.11 c 62.29,66.14 131.76,127.27 204.12,179.39 3.79,2.74 0.07,8.64 -3.76,6.71 -88.45,-44.63 -169.83,-105.01 -242.43,-176.7 4.77,16.32 9.06,32.61 13.08,48.4 14.65,57.36 24.66,115.5 32.74,173.9 15.85,114.48 24.66,229.47 40.29,343.97 28.42,208.17 80.35,424.39 228.22,578.67 69.27,72.27 157.44,126.69 250.89,140.76 9.4,1.41 8,16.82 -0.82,16.27 -168.97,-10.66 -312.81,-141.18 -400.12,-297.36 -117.66,-210.45 -135.93,-457.09 -169.18,-689.93 -9.58,-67.09 -20.95,-133.98 -34.98,-200.45 -6.97,-33.07 -14.76,-66.12 -23.21,-98.88 -8.82,-34.18 -21.33,-67.53 -27.7,-102.23 -0.79,-4.25 -0.35,-8.73 0.98,-13.04 -116.29,-145.43 -201.57,-321.44 -245.42,-502.67 -22.42,-92.67 -39.14,-193.54 -33.42,-287.72 1.04,-17.07 18.11,-29.07 31.98,-27.96 -159.66,-152.72 -261.27,-397.03 -226.32,-617.61 0.37,-2.34 3.93,-4.01 4.47,-0.63 18.24,114.83 46.98,229.15 98.63,334.08 51.72,105.07 121.43,200.41 205.49,277.94 25.28,23.31 -0.55,73.98 -29.1,52.01 -12.36,-9.52 -24.44,-19.6 -36.26,-30.15 0.39,1.66 0.68,3.44 0.82,5.4 5.94,81.63 10.48,161.55 27.27,242.48 16.6,80.07 41.28,158.68 72.17,234.45 62.01,152.1 151.19,293.7 261.57,410.9"
         style="fill:#000000;fill-opacity:1;fill-rule:nonzero;stroke:none"
         id="path112" />
      <path
         d="m 7181.76,6139.19 c 4.58,31.71 6.43,64 5.47,95.7 -1.89,62.61 -14.84,123.87 -38.01,179.7 -22.94,55.29 -58.26,104.97 -99.83,144.5 -10.91,10.38 -22.35,19.9 -34.32,28.63 37.01,-8.53 74.19,-16.07 111.51,-21.85 28.5,-4.42 31.85,37.36 8.1,46.03 -152.26,55.63 -314.4,79.89 -467.26,133.82 -130.58,46.07 -239.74,130.46 -306.81,261.24 -35.6,69.41 -60.45,143.68 -68.88,224.48 -0.16,1.53 -2.28,1.76 -2.26,-0.02 1.95,-145.22 50.79,-278.3 139.08,-381.19 107.23,-124.95 259,-176.08 409.78,-216.79 27.59,-7.45 55.32,-15 83.16,-22.36 3.49,-3.55 7.07,-7.04 11.14,-10 10.16,-7.37 20.2,-14.93 30.31,-22.39 21.32,-15.72 41.17,-34.15 59.75,-53.48 35.81,-37.25 64.2,-82.01 84.19,-131.85 19.93,-49.71 30.67,-103.51 32.05,-158.89 0.67,-27.12 -1,-54.3 -5.05,-81.41 -4.15,-27.67 -17.18,-58.56 -10.96,-85.62 2.74,-11.92 18.72,-22.95 29.72,-13.55 22.08,18.85 25.1,57.51 29.12,85.3"
         style="fill:#000000;fill-opacity:1;fill-rule:nonzero;stroke:none"
         id="path114" />
      <path
         d="m 6679.11,7662.19 c -92.03,96.56 -224.55,123.38 -351.15,74.25 -69.21,-26.86 -133.96,-70.91 -178.18,-137 -13.13,-19.62 9.69,-47.28 26.87,-28.41 83.86,92.13 192.73,138.18 307.03,127.1 113.05,-10.95 200.31,-89.14 246.09,-197.46 25.87,-61.2 38.06,-132.5 34.28,-201.67 -0.06,-1.12 1.73,-1.92 2.15,-0.62 42.16,133.35 -0.5,272.95 -87.09,363.81"
         style="fill:#000000;fill-opacity:1;fill-rule:nonzero;stroke:none"
         id="path116" />
      <path
         d="m 7150.32,7260.65 c 2.19,13.44 -8.23,24.86 -20.45,22.06 -15.75,-3.6 -28.9,-23.01 -42.81,-32.58 -15.64,-10.77 -32.73,-17.96 -50.48,-22.22 -37.21,-8.94 -75.19,-6.94 -108.51,10.74 -3.41,1.8 -5.93,-3.06 -3.4,-5.72 29.34,-30.9 71.42,-47.29 113.92,-42.16 -7.41,-13.92 -13.36,-28.84 -18.12,-44.37 -9.18,-29.96 -15.81,-70.5 0.14,-97.48 0.94,-1.6 2.92,-1.72 3.91,0.07 13.39,24.14 16.76,54.9 27.47,80.61 12.1,29.05 31.03,52.8 49.93,77.05 1.47,1.89 2.5,3.97 3.19,6.17 18.02,10.04 41.57,25.58 45.21,47.83"
         style="fill:#000000;fill-opacity:1;fill-rule:nonzero;stroke:none"
         id="path118" />
      <path
         d="m 7177.87,7395.59 c -9.36,19.92 -28.27,35.35 -40.75,53.14 -12.88,18.36 -24.92,37.73 -35.79,57.65 -22.22,40.75 -41.92,86.28 -52.4,132.92 -0.07,0.33 -0.6,0.3 -0.55,-0.09 5.95,-50.27 14.89,-96.48 34.17,-141.98 9.94,-23.44 21.59,-45.4 35.43,-66.18 12.29,-18.45 26.21,-43.47 45.17,-53.95 11.45,-6.33 19.84,7.58 14.72,18.49"
         style="fill:#000000;fill-opacity:1;fill-rule:nonzero;stroke:none"
         id="path120" />
      <path
         d="m 7147.21,5713.51 c -10.24,69.65 -12.16,141.61 -4.46,212.91 3.78,34.97 7.42,69.79 13.48,104.57 6.34,36.43 16.32,71.94 20.83,108.63 1.24,10.02 -4.16,19 -11.25,22.73 0.02,0.07 0.03,0.13 0.05,0.2 4.24,18.15 -21,32.86 -29.7,13.31 -35.41,-79.56 -73.26,-158.65 -130.4,-223.56 -57.43,-65.22 -128.68,-120.34 -203.87,-156.63 -2.38,-1.15 -1.2,-5.08 1.24,-4.4 83.91,23.46 158.41,68.97 222.58,134.88 31.45,32.3 60.69,67.82 84.87,106.56 -5.13,-33.34 -8.18,-67.54 -7.28,-100.8 2.04,-75.78 15.48,-149.55 39.51,-219.11 0.81,-2.36 4.87,-2.52 4.4,0.71"
         style="fill:#000000;fill-opacity:1;fill-rule:nonzero;stroke:none"
         id="path122" />
      <path
         d="m 6256.49,5614.9 c -18.54,124.75 -96.01,228.23 -203.13,272.47 -59.29,24.49 -126.35,26.87 -190.14,11.55 -61.8,-14.85 -132.41,-49.05 -173.01,-105.8 -12.33,-17.22 5.7,-47.21 24.4,-33.33 46.73,34.69 89.72,67.79 144.44,84.13 51.7,15.43 106.17,16.97 156.45,2.51 101.66,-29.25 180.96,-125.64 200.81,-238.25 23.24,-131.75 -40.04,-268.01 -120.5,-369.74 -85.46,-108.04 -196.75,-184.13 -303.22,-263.88 -59.17,-44.33 -118.21,-89.16 -173.33,-139.65 -26.32,-24.11 -51.23,-49.29 -74.18,-77.24 -24.87,-30.27 -45.16,-63.57 -67.31,-96.03 -1.28,-1.87 1.2,-4.69 2.56,-2.7 40.95,60.01 101.18,109.24 155.4,154.21 55.16,45.74 113.7,86.06 172.36,125.82 117.8,79.85 239.56,164.92 329.62,282.85 83.23,108.96 139.26,255.34 118.78,393.08"
         style="fill:#000000;fill-opacity:1;fill-rule:nonzero;stroke:none"
         id="path124" />
      <path
         d="m 5852.83,5422.05 c -24.48,7.56 -49.83,16.85 -75.24,20.83 -24.86,3.88 -51.57,1.81 -76.77,-2.19 -53.81,-8.53 -103.73,-29.62 -145.15,-70.92 -15.56,-15.52 6.35,-40.7 22.92,-31.31 42.06,23.8 84.78,47.91 130.04,62.44 45.42,14.6 97.99,26.43 143.75,18.63 1.55,-0.26 1.79,2.11 0.45,2.52"
         style="fill:#000000;fill-opacity:1;fill-rule:nonzero;stroke:none"
         id="path126" />
      <path
         d="m 5893.69,3754.62 c 44.45,144.13 9.53,304.85 -106.46,383.39 -60.88,41.22 -137.74,54.83 -208.74,23.48 -22.63,-9.99 -10.9,-46.97 11.49,-40.8 112.72,31.1 230.66,-33.91 266.06,-150.71 37.66,-124.29 -10.4,-262.27 -92.67,-360.22 -24.75,-29.48 -52.86,-55.32 -83.11,-77.66 -30.13,-22.25 -62.12,-48.76 -95.91,-63.14 -1.74,-0.75 -0.82,-3.74 0.88,-3.14 33.82,11.87 67.28,19.16 99.68,36.96 32.46,17.84 63.27,40.81 91.13,66.6 54.13,50.09 95.22,112.51 117.65,185.24"
         style="fill:#000000;fill-opacity:1;fill-rule:nonzero;stroke:none"
         id="path128" />
      <path
         d="m 5679.95,3915.43 c 4.46,16.54 -15.73,29.26 -26.96,16.81 -17.59,-19.51 -31.13,-42.85 -47.87,-63.31 -17.15,-20.96 -34.51,-41.6 -54.22,-59.77 -30.67,-28.3 -65.59,-53.75 -102.17,-72.63 11.52,18.17 20.95,37.75 28.12,56.65 9.48,24.96 16.33,51.4 15.92,78.02 -0.41,27.01 -6.73,54.13 -11.99,80.03 -0.34,1.67 -2.95,1.48 -2.75,-0.44 4.91,-46.06 -14.5,-99.2 -33.47,-141.48 -19,-42.36 -48.28,-70.84 -77.7,-103.34 -88.13,-21.81 -185.56,-14.43 -262.18,25.61 -2.48,1.3 -3.85,-2.61 -1.74,-3.99 48.4,-31.56 101.1,-55.24 158.3,-63.42 35.63,-5.1 72.94,-3.65 109.56,3.07 1.75,-0.11 3.57,0.18 5.42,0.99 0.06,0.02 0.11,0.06 0.17,0.08 18.65,3.71 37.09,8.76 54.99,15.04 54.06,18.96 104.12,47.72 148.21,88.24 41.27,37.92 84.95,86.79 100.36,143.84"
         style="fill:#000000;fill-opacity:1;fill-rule:nonzero;stroke:none"
         id="path130" />
      <path
         d="m 6011.5,6655.33 c -11.48,17.59 -29.31,28.8 -42.65,44.79 -13.45,16.12 -24.58,34.62 -34.5,53.6 -20.56,39.33 -33.48,86.96 -32.68,133.66 0.02,1.34 -2.03,1.86 -2.24,0.31 -6.58,-49.7 -5.87,-97.07 7.82,-144.01 6.84,-23.49 16.96,-45.51 29.46,-65.71 12.1,-19.54 27.72,-46.58 48.24,-56.01 18.8,-8.64 39.7,13.23 26.55,33.37"
         style="fill:#000000;fill-opacity:1;fill-rule:nonzero;stroke:none"
         id="path132" />
      <path
         d="m 7143.75,5406.11 c 28.5,14.06 55.73,30.24 81.06,48.26 97.54,69.39 193.39,174.84 235.91,294.03 8.96,25.12 -21.57,49.08 -36.02,22.37 -49.83,-92.11 -107.13,-171.83 -188.81,-233.34 -29.23,-22.02 -60.07,-41.19 -92.03,-57.44 -6.87,0.68 -14.04,-1.94 -19.46,-9.43 -46.61,-21.68 -95.31,-37.28 -144.71,-46.4 -102,-18.85 -224.96,-7.55 -304.69,61.81 -70.36,61.21 -108.55,166.83 -92.91,268.15 18.9,122.42 109.47,230.11 216.81,271.16 10.32,3.94 4.75,20.97 -5.13,18.2 -103.97,-29.11 -191.03,-117.23 -227.43,-228.11 -35.66,-108.65 -20.04,-231.94 38.47,-320.97 105.54,-160.57 305.02,-177.12 477.38,-114.56 -43.49,-126.63 -36.18,-271.72 26.76,-380.81 1.52,-2.65 5.52,-1.01 4.52,2.27 -39.9,131.62 -29.8,276.97 30.28,404.81"
         style="fill:#000000;fill-opacity:1;fill-rule:nonzero;stroke:none"
         id="path134" />
      <path
         d="m 7093.24,4183.23 c 22.67,134.59 -16.65,267.2 -99.27,361.46 -43.43,49.56 -98.96,88.03 -163.03,98.75 -2.02,0.33 -2.74,-2.62 -1.07,-3.6 92.14,-54.22 169.47,-133.23 201.21,-245.54 31.32,-110.79 9.56,-234.82 -44.05,-339.51 -31.52,-61.53 -75.63,-112.7 -126.96,-155.57 -9.66,-8.08 -2.47,-29.61 9.8,-23.74 111.79,53.42 201.59,178.43 223.37,307.75"
         style="fill:#000000;fill-opacity:1;fill-rule:nonzero;stroke:none"
         id="path136" />
      <path
         d="m 7634.02,5050.34 c 8.69,45.26 12.24,91.67 10.49,137.16 -0.9,23.46 -3.4,46.63 -7.18,69.55 -3.79,23.02 -6.91,47.69 -21.23,65.24 -8.07,9.9 -25.89,5.39 -27.7,-9.27 -2.5,-20.16 4.75,-39.28 8.43,-58.5 4,-20.91 6.37,-42.32 7.59,-63.83 2.51,-44.22 -0.52,-88.84 -8.72,-132.98 -8.05,-43.4 -20.75,-85.37 -36.44,-126.64 -4.15,-10.91 -8.41,-21.87 -12.81,-32.8 -3.44,63.96 -19.25,126.33 -49.62,179.54 -18.25,31.97 -56.27,3.21 -41.82,-29.6 43.89,-99.59 53.8,-217.12 16.27,-326.66 -37.5,-109.46 -116.02,-192.07 -210.21,-245.65 -53.74,-30.58 -114.21,-48.94 -173.23,-54.26 -2.69,-0.24 -2.76,-4.62 -0.31,-5.13 110.61,-22.76 228.34,17.45 316.3,101.91 88.85,85.33 138,208.37 142.92,332.25 16.32,19.96 30.83,41.38 43,65.66 21.03,41.95 35.44,88 44.27,134.01"
         style="fill:#000000;fill-opacity:1;fill-rule:nonzero;stroke:none"
         id="path138" />
      <path
         d="m 6833.8,4324.02 c -129.56,-7.76 -253.56,-84.42 -330.64,-203.64 -38.24,-59.15 -65.49,-126.69 -75.84,-196.88 -12.91,-87.54 0.9,-174.75 9.63,-260.41 10.52,-103.16 12.83,-215.47 -40.33,-310.92 -10.03,-18.02 14.7,-39.97 28.49,-23.36 116.79,140.69 47.56,322.92 34.34,482.41 0.54,1.49 0.98,3.1 1.17,5 6.12,64.38 27.13,124.65 68.2,174.42 39.76,48.18 92.73,90.88 150.85,102.36 1.65,0.33 0.98,3.34 -0.52,3.2 -64.35,-6.21 -123.9,-31.41 -170.8,-83.91 -14.36,-16.07 -27.36,-33.7 -38.55,-52.48 23.98,101.23 81.39,193.92 159.06,261.4 58.98,51.24 131.68,89.37 205.1,99.56 1.89,0.26 1.6,3.36 -0.16,3.25"
         style="fill:#000000;fill-opacity:1;fill-rule:nonzero;stroke:none"
         id="path140" />
      <path
         d="m 6279.64,4916.53 c -130.33,82.14 -294.24,-10.7 -397.94,-116.95 -120.44,-123.42 -220.3,-277.8 -302.91,-432.15 -40.44,-75.58 -75.18,-151.53 -101.65,-232.33 -5.07,2.84 -11.25,2.57 -16.19,-3.61 -41.68,-52.12 -89.55,-96.37 -142.33,-134.29 -25.49,-18.31 -52.07,-33.24 -78.95,-48.6 -29.35,-16.76 -56.37,-36.29 -87.77,-48.15 -0.72,-0.27 -0.32,-1.41 0.36,-1.26 32.27,7.39 66.54,11.23 97.77,24.29 28.89,12.07 57.15,29.15 83.75,46.63 47.28,31.06 90.53,70.26 128.96,113.92 0.08,0.05 0.16,0.08 0.2,0.17 0.02,0.04 0.04,0.08 0.06,0.12 6.85,7.78 13.6,15.67 20.13,23.72 4.62,5.69 4.51,12.66 1.88,18.32 71.9,137.59 143.07,275.15 232.36,401.52 47.15,66.72 97.59,131.33 152.01,191.3 51.48,56.74 109.62,109.84 176.85,141.46 72.83,34.27 148.24,37.74 219.41,9.09 26.1,-10.51 33.45,34.53 14,46.8"
         style="fill:#000000;fill-opacity:1;fill-rule:nonzero;stroke:none"
         id="path142" />
      <path
         d="m 6517.65,4164.26 c 3.82,14.26 -10.58,30.48 -23.74,25.61 -13.86,-5.13 -23.36,-17.29 -36.24,-24.77 -12.67,-7.37 -26.97,-11.58 -40.91,-13.17 -27.41,-3.11 -55.35,2.75 -79.05,16.03 -62.58,35.11 -100.24,104.93 -145.83,160.35 -41.03,49.91 -95.86,100.64 -162.95,99.3 -53.06,-1.05 -108.66,-32.64 -127.3,-90.75 -0.45,-1.42 1.19,-2.78 2.03,-1.26 35.82,64.7 117.1,71.52 170.84,42.17 64.03,-34.96 101.88,-103.93 146.32,-161.7 40.16,-52.21 89.32,-101.59 154.52,-112.51 43.51,-7.28 126.56,2.06 142.31,60.7"
         style="fill:#000000;fill-opacity:1;fill-rule:nonzero;stroke:none"
         id="path144" />
      <path
         d="m 7170.15,4522.34 c -21.42,172.08 -134.45,345.15 -306.81,347.03 -71.4,0.79 -150.37,-31.62 -196.65,-96.76 -23,-32.36 -37.3,-70.83 -61.15,-102.55 -29.69,-39.46 -70.85,-44.4 -101.9,-8.26 -34.42,40.04 -37.56,100.87 -68.12,143.73 -23.52,32.97 -58.54,51.16 -97.74,36.44 -1.77,-0.67 -0.81,-3.68 0.89,-3.14 52.77,16.61 86.37,-43.34 100.95,-87.14 13.34,-40.05 22.66,-81.84 49.26,-113.77 22.3,-26.76 54.95,-42.26 89.59,-32.3 31.36,9 54.68,37.24 73.5,64.94 20.9,30.76 38.83,65.07 65.75,90.45 25.35,23.89 56.31,39.05 88.14,47.04 71.01,17.82 145.2,-1.44 198.75,-49.51 67.84,-60.9 100.77,-151.63 124.84,-242.75 6.26,-23.7 44.3,-22.39 40.7,6.55"
         style="fill:#000000;fill-opacity:1;fill-rule:nonzero;stroke:none"
         id="path146" />
      <path
         d="m 7353.59,4210.18 c -1.71,1.54 -4.35,-0.66 -2.94,-2.81 36.5,-55.7 59.53,-123.48 59.72,-194.16 -0.24,0.32 -0.42,0.67 -0.68,0.98 -16.69,19.69 -34.75,36.08 -54.9,51.57 -9.51,7.31 -18.99,14.64 -29.25,20.7 -10.8,6.38 -25.08,9.98 -34.77,17.82 -1.71,1.38 -3.11,-1.73 -1.85,-3.12 9.43,-10.43 14.99,-25.95 23.2,-37.77 7.25,-10.41 15.61,-19.85 23.81,-29.36 16.96,-19.65 34.57,-36.19 54.92,-51.53 7.46,-5.62 13.97,-3.64 18.26,1.56 -0.2,-2.29 -0.33,-4.59 -0.58,-6.89 -9.59,-87.37 -56.09,-171.42 -119.45,-228.62 -22.95,-20.72 1.2,-66.49 25.97,-46.42 151.69,122.9 178.89,381.46 38.54,508.05"
         style="fill:#000000;fill-opacity:1;fill-rule:nonzero;stroke:none"
         id="path148" />
      <path
         d="m 6495.86,3620.76 c -3.85,38.86 -10.43,76.96 -20,114.25 -9.76,38.06 -24.06,73.88 -35.24,111.27 -0.92,3.07 -5.27,1.89 -4.29,-1.38 18.33,-61.28 17.86,-132.4 15.67,-197.59 -2.16,-64.05 -10.99,-128.04 -24.86,-191.07 -27.76,-126.23 -81.86,-248.1 -159.22,-350.11 -45.25,-59.65 -94.06,-113.63 -147.21,-164.88 -23.71,-22.86 9.67,-63.52 35.13,-47.97 116.12,70.87 204.97,187.83 265.51,314.99 60.41,126.86 88.18,274.86 74.51,412.49"
         style="fill:#000000;fill-opacity:1;fill-rule:nonzero;stroke:none"
         id="path150" />
      <path
         d="m 6598.62,3357.14 c 0.89,79.85 11.67,154.95 41.18,230.62 28.94,74.21 71.59,141.82 115.22,207.28 0.36,0.54 -0.15,1.42 -0.74,1.01 -114.52,-79.52 -171.68,-230.22 -186.94,-368.51 -7.95,-72.07 -5.45,-151.81 -31.85,-220.81 -20.97,-54.8 -64.93,-101.4 -118.7,-112.88 -27.65,-5.91 -15.25,-52.93 8.6,-52.42 59.52,1.28 108.78,47.88 135.29,105.26 30.85,66.81 37.13,138.51 37.94,210.45"
         style="fill:#000000;fill-opacity:1;fill-rule:nonzero;stroke:none"
         id="path152" />
      <path
         d="m 6807.8,5219.99 c -126.76,-51.69 -255.88,-98.64 -389.11,-114.09 -65.37,-7.58 -130.98,-8.68 -195.77,-3.18 -33.26,2.83 -66.16,8.07 -98.69,14.95 -15.29,3.23 -30.5,6.85 -45.6,10.87 -17.24,4.58 -33.45,15.21 -50.95,17.66 -23.44,3.29 -34.47,-32.6 -12.91,-43.2 15.89,-7.82 33.36,-8 50.48,-12.01 17.36,-4.08 34.77,-7.88 52.34,-11.05 32.11,-5.8 64.54,-9.78 97.14,-12.7 68.07,-6.09 137.03,-5 205.75,3.32 135.71,16.42 273.26,56.75 390.01,142.9 2.9,2.14 0.62,7.88 -2.69,6.53"
         style="fill:#000000;fill-opacity:1;fill-rule:nonzero;stroke:none"
         id="path154" />
      <path
         d="m 6634.17,6137.1 c -33.95,59.13 -81.11,108.31 -135.44,144.9 -107.84,72.64 -245.99,93.79 -372.41,45.79 -3.25,-1.23 -1.46,-6.33 1.59,-5.65 120.86,27.26 246.42,4.76 347.91,-61.89 49.88,-32.76 93.57,-76.87 125.38,-130.14 16.36,-27.41 29.71,-56.94 37.81,-88.92 7.94,-31.32 8.71,-65.4 10.91,-97.95 0.69,-10.25 15.99,-19.34 20.88,-6.05 24.74,67.25 -4.86,144.58 -36.63,199.91"
         style="fill:#000000;fill-opacity:1;fill-rule:nonzero;stroke:none"
         id="path156" />
      <path
         d="m 5554.63,4608.75 c -74.98,8.86 -147.08,-13.35 -215.4,-52.31 -35.57,-20.29 -69.49,-44.51 -99.25,-73.51 0.64,2.42 1.31,4.83 1.93,7.24 25.27,97.77 26.07,196.94 20.9,295.39 -0.19,3.51 -5.65,5.26 -6.14,0.86 -10.46,-92.58 -37.7,-183.88 -64.23,-273.21 -27.31,-91.96 -66.62,-179.04 -98.06,-269.4 -5.47,-15.73 11.76,-36.01 24.75,-20.29 29.73,35.95 53.62,77.35 73.17,121.09 5.31,-0.96 10.88,0.43 16.01,5.29 52.64,49.9 102.82,103.66 161.97,144.27 58.71,40.29 123.41,70.45 186.87,99.24 7.89,3.59 4.56,14.51 -2.52,15.34"
         style="fill:#000000;fill-opacity:1;fill-rule:nonzero;stroke:none"
         id="path158" />
      <path
         d="m 6583.88,6202.9 c -41.88,49.39 -111.89,63.19 -173.31,62.1 -64.2,-1.15 -124.38,-23.09 -175.18,-69.94 -0.65,-0.59 -0.22,-2.1 0.69,-1.69 53.59,24.28 113.74,37.12 170.31,34.61 59.44,-2.63 107.58,-30.32 160.23,-54.12 17.84,-8.06 29.53,14.56 17.26,29.04"
         style="fill:#000000;fill-opacity:1;fill-rule:nonzero;stroke:none"
         id="path160" />
      <path
         d="m 6633.97,6759.41 c -32.57,24.05 -59.28,51.4 -76.61,90.59 -18.72,42.35 -22.21,91.93 -23.2,139.38 -1.07,51.28 2.44,102.95 1.09,154.17 -1.5,57.52 -8.6,114.14 -8.49,171.79 0,0.31 -0.5,0.45 -0.53,0.08 -4.42,-60.63 -17.82,-120.53 -22.1,-181.18 -4.14,-58.72 -9.3,-118.34 -8.47,-176.93 1.28,-90.55 30.88,-222.41 125.73,-239.96 25.01,-4.63 29.87,29.31 12.58,42.06"
         style="fill:#000000;fill-opacity:1;fill-rule:nonzero;stroke:none"
         id="path162" />
      <path
         d="m 6349,6731.49 c -35.33,69.32 -101.8,110.13 -176.2,109.18 -2.96,-0.04 -2.81,-4.87 -0.33,-5.46 63.04,-15.18 120.83,-60.03 149.93,-122.54 29.29,-62.9 20.31,-129.92 0.59,-197.37 -5.84,-19.98 21.54,-33.54 31.66,-14.18 36.88,70.51 27.53,165.27 -5.65,230.37"
         style="fill:#000000;fill-opacity:1;fill-rule:nonzero;stroke:none"
         id="path164" />
      <path
         d="m 6191.85,3645.48 c 2.22,96.1 -19.41,187.85 -63.93,267.55 -1.86,3.32 -7.27,1.14 -5.72,-2.87 54.51,-141.37 55.95,-317.43 -8.42,-463.7 -62.45,-141.93 -183.36,-249.61 -319.53,-295.54 -36.1,-12.17 -73.52,-20.97 -110.7,-24.66 -0.2,-0.02 -0.39,-0.03 -0.58,-0.05 -30.82,-9.7 -62.31,-17.04 -94.11,-21.34 -17.65,-5.01 -35.66,-8.65 -53.79,-10.23 -0.16,-17.08 8.86,-35.68 24.46,-40.67 71.93,-22.96 159.07,-10.35 232.18,14.77 74.76,25.68 146.03,68.09 206.48,124.45 121.85,113.6 189.76,284.15 193.66,452.29"
         style="fill:#000000;fill-opacity:1;fill-rule:nonzero;stroke:none"
         id="path166" />
      <path
         d="m 6443.32,3731.98 c 27.42,195.77 -43.05,414.52 -221.98,477.93 -76.46,27.1 -164.81,12.58 -233.16,-42.74 -73.78,-59.7 -102.16,-150.99 -93.65,-244.86 11.65,-128.44 67.83,-244.06 96.21,-366.95 0.78,-3.36 5.39,-2.08 4.58,1.47 -12.09,52.32 -18.39,106.75 -26.87,160.14 -7.29,45.94 -17.32,91.09 -24.6,137.02 -13.21,83.34 -18.33,173.46 42.93,241.86 49.81,55.63 126.55,80.65 192.93,66.07 76.05,-16.7 137.03,-74.51 172.99,-146.81 42.24,-84.94 52.5,-181.34 57.29,-278.5 0.94,-19.22 30,-28.44 33.33,-4.63"
         style="fill:#000000;fill-opacity:1;fill-rule:nonzero;stroke:none"
         id="path168" />
      <path
         d="m 7284.79,4833.39 c -14.22,5.45 -28.64,14.16 -42.44,23.7 3.12,5.66 3.21,13.69 -2.06,18.93 -43.59,43.32 -85.2,91.88 -117.5,146.02 -15.27,25.58 -29.93,53.36 -42.04,82.49 -6.9,36.19 -13.99,72.37 -19.76,108.83 0.28,3.55 0.55,7.1 0.85,10.65 7.26,2.05 13.58,7.96 15.54,18.24 6.18,32.29 14.63,63.88 21.22,96.05 0.97,4.72 0.81,9.1 -0.15,13.04 l 2.59,12.77 c 6.34,13.2 13.13,26.27 20.23,39.25 15.71,28.73 -23.73,64.47 -45.56,37.37 -14.77,-18.34 -27.47,-38.44 -38.24,-59.72 -1.24,18.65 -25.08,31.6 -35.88,10.32 -6.59,-13.01 -13.36,-25.93 -20.13,-38.86 -33.43,30.99 -86.09,52.01 -127.25,22.55 -16.07,-11.49 -5.65,-38.29 10.98,-38.39 19.95,-0.14 39.84,1.71 58.78,-4.85 18.7,-6.47 35.63,-17.88 48.63,-33.62 13.57,-16.43 20.91,-35.91 23.42,-56.59 -2.29,-18.52 -3.48,-37.15 -3.57,-55.67 -2.04,-8.92 -4.7,-17.78 -7.9,-26.44 -41.52,-112.2 -151.34,-164.57 -247.38,-203.27 -2.63,-1.06 -1.79,-5.66 0.89,-5.45 98.24,7.69 207.57,50.09 263.41,142.11 3.53,-17.14 8.07,-33.8 13.63,-49.73 21.9,-62.81 58.29,-119.63 106.71,-160.57 22.52,-19.04 48.38,-34.83 75.75,-44.72 29.48,-10.65 55.93,-10.52 86.72,-12.94 4.87,-0.38 3.86,7.22 0.51,8.5"
         style="fill:#000000;fill-opacity:1;fill-rule:nonzero;stroke:none"
         id="path170" />
      <path
         d="m 5889.57,5888.07 c -31.82,10.02 -64.4,17.38 -93.59,34.51 -28.38,16.65 -52.8,40.34 -71.81,68.56 -35.86,53.26 -39.76,114.65 -38.22,180.57 0.59,25.38 -32.63,31.23 -39.69,5.52 -20.72,-75.5 7.14,-161.88 49.09,-218.18 28.81,-38.66 77.16,-72.72 127.41,-82.74 -22.02,-6.35 -43.34,-14.91 -63.99,-26.05 -44.32,-23.9 -84.92,-57.43 -118.53,-97.5 -73.72,-87.91 -111.07,-209.66 -94.4,-322.75 3.57,-24.24 37.71,-29.16 36.85,0.32 -3.03,103.13 25.85,210.81 90.16,292.96 28.85,36.86 63.64,67.48 102.21,91.03 19.58,11.96 39.9,22.71 60.81,31.18 15.07,6.11 40.99,12.1 50.62,27.45 1.03,1.63 0.57,3.3 -0.76,4.35 -0.19,0.15 -0.4,0.26 -0.6,0.41 1.64,0.45 3.28,0.89 4.91,1.42 4.33,1.39 2.94,7.87 -0.47,8.94"
         style="fill:#000000;fill-opacity:1;fill-rule:nonzero;stroke:none"
         id="path172" />
      <path
         d="m 6854.44,4339.56 c -43.35,24.32 -99.06,19.96 -147.16,6.38 -51.46,-14.54 -102.01,-40.7 -145.07,-76.37 -33.49,-27.74 -63.46,-62.16 -87.92,-100.66 -2.14,-0.99 -4.21,-2.41 -6.12,-4.4 -12.51,-13.09 -23.79,-27.5 -34.9,-42.07 -5.65,7.96 -16.59,10.69 -23.28,3.73 -6.06,3.63 -13.37,4.34 -20.36,-0.5 -17.47,-12.08 -35.99,-19.86 -35.46,-45.02 0.4,-18.4 10.64,-36.33 25.16,-44.76 0.13,-0.08 0.25,-0.14 0.39,-0.21 -0.53,-23.45 4.99,-46.78 16.53,-67.86 2.49,-4.55 6.73,-8.67 11.66,-11.4 -0.08,-6.8 0.01,-13.58 0.34,-20.36 1.53,-30.84 46.57,-44.88 52.92,-7.36 18.41,108.86 58.19,211.53 138.47,287.47 35.89,33.95 78.28,60.12 122.61,76.63 43.42,16.17 88.58,21.84 131.69,38.25 3.55,1.36 3.47,6.84 0.5,8.51"
         style="fill:#000000;fill-opacity:1;fill-rule:nonzero;stroke:none"
         id="path174" />
      <path
         d="m 6676.3,5951.34 c 33.9,22.21 0.64,76.7 -33.03,59.05 -111.86,-58.65 -192.25,-173.52 -236.13,-296.86 -43.53,-122.34 -52.4,-253 -3.45,-368.48 0.72,-1.7 3.5,-0.98 3.24,1.06 -14.79,113.37 0.28,238.4 47.1,345.72 47.39,108.61 128.19,197.83 222.27,259.51"
         style="fill:#000000;fill-opacity:1;fill-rule:nonzero;stroke:none"
         id="path176" />
      <path
         d="m 7288.78,6348.93 c 2.24,43.58 5.79,81.79 -7.24,123.07 -13.1,41.52 -35.63,77.32 -64.95,106.53 -55.86,55.64 -141.8,99.24 -221.64,72.68 -30.76,-10.23 -15.91,-55.19 9.38,-57.2 65.5,-5.19 126.98,-18 177.22,-64.32 23.82,-21.97 45.36,-48.01 62.66,-76.41 18.26,-29.98 37.97,-66.97 40.04,-104.39 0.17,-3.2 4.35,-3.46 4.53,0.04"
         style="fill:#000000;fill-opacity:1;fill-rule:nonzero;stroke:none"
         id="path178" />
      <path
         d="m 7456.38,5959.87 c -2.64,7.11 -11.9,6.98 -12.31,-1.98 -3.01,-67.12 -13.51,-134.82 -39.25,-197.86 -25.45,-62.34 -67.08,-119.68 -115.9,-163.13 -18.02,-16.04 -0.61,-49.23 20.16,-36.03 121.09,77.02 198.96,259.77 147.3,399"
         style="fill:#000000;fill-opacity:1;fill-rule:nonzero;stroke:none"
         id="path180" />
      <path
         d="m 6053.12,7437.95 c -36.07,-72.67 -67.18,-147.52 -93.2,-224.04 -7.06,219.63 96.38,435.69 274.04,566.49 16.25,11.96 33.07,23.09 50.29,33.6 -13.29,-20.7 -24.7,-42.26 -34.74,-64.79 -76.42,-95.34 -142.1,-201.82 -196.39,-311.26 z m 1611.13,-585.71 c -11.25,7.54 -24.5,11.85 -38.27,15.14 18.1,60.21 19.45,130.3 17.45,191.03 -2.2,66.83 -12.61,133.73 -32.68,195.76 -40.75,125.95 -115,237.19 -214.91,312.76 -55.68,42.13 -117.65,69.53 -185.3,83.69 -0.24,0.04 -0.45,0.02 -0.67,0 -0.37,6.34 -0.91,12.68 -2.3,19.02 -3.36,15.26 -7.8,30.23 -13.01,44.74 -10.49,29.29 -24.74,55.39 -42.32,79.92 -35.23,49.14 -81.99,87.31 -135.16,111.6 -32.74,14.96 -69.43,24.68 -107.3,28.36 -1.47,3.67 -3.84,7.15 -7.27,10.15 -53.55,46.82 -127.05,69.12 -196.02,77.32 -69.35,8.25 -140.95,-1.23 -208.02,-29.52 -49.81,-21.01 -97.3,-51.13 -138.76,-89.08 -22.62,-6.6 -44.61,-19.6 -64.82,-30.59 -24.47,-13.29 -47.94,-28.28 -70.45,-44.66 -45.57,-33.18 -87.36,-72.02 -123.73,-115.08 -77.14,-91.31 -127.12,-203.17 -146.51,-320.96 -11.11,-67.51 -11.95,-136.42 -2.95,-204.2 -29.92,-92.62 -52.45,-187.58 -67.09,-284.1 -15.94,-105.1 -26.6,-213.98 -13.05,-317.92 0.62,-4.77 8.06,-7.92 8.94,-1.24 11.93,90.25 18.42,180.7 34.61,270.59 16.15,89.62 39.01,178.27 68.51,264.65 59.1,173.05 136.57,338.15 238.86,488.2 50.01,73.36 105.92,141.69 163.71,208 16.46,13.08 34.27,24.02 52.53,33.55 25.97,13.55 54.56,23.76 82.66,28.38 15.45,2.54 30.69,2.52 46.09,2.14 6.6,-0.16 13.72,-1.09 20.35,0.74 4.79,1.33 8.31,4.63 12.46,4.33 6.63,-0.48 6.52,9.95 2.21,12.55 -4.33,2.63 -6.86,8.64 -11.33,12.14 -6.19,4.86 -13.86,7.6 -21.3,9.66 -16.2,4.49 -33.74,6.48 -50.65,7.04 -15.13,0.51 -30.46,-0.54 -45.7,-2.97 12.06,5.9 24.34,11.23 36.88,15.85 60.33,22.25 124.59,29.73 186.36,23.81 30.87,-2.96 61.26,-10.26 90.31,-20.63 9.7,-3.46 19.02,-7.56 28.15,-11.98 -52.88,-9.65 -103.69,-32.37 -145.01,-70.46 -17.39,-16.02 -5.7,-56.84 18.85,-45.7 47.81,21.71 98.98,42.74 149.81,49.9 52.41,7.39 106.04,1.81 154.99,-15.38 47.18,-16.58 88.41,-46.98 123.58,-83.73 17.89,-18.68 33.93,-39.75 48.5,-61.61 7.24,-10.87 13.94,-22.16 20.03,-33.87 7.01,-13.48 17.03,-28.11 21.87,-42.62 0.79,-2.39 4.9,-2.49 4.39,0.71 -0.93,5.87 -1.27,11.73 -1.59,17.57 100.3,-51.17 194.52,-128.12 260.46,-224.82 65.03,-95.37 102.83,-212.09 110.69,-333.59 2.15,-33.06 2.4,-66.62 -0.29,-99.98 -2.84,-35.23 -11.18,-69.75 -14.73,-104.75 -28.14,9.96 -55.5,23.06 -81.61,37.58 -27.81,15.48 -53.18,34.48 -77.85,54.98 -12.51,10.38 -23.87,22.09 -35.86,33.11 -9.19,8.46 -17.86,19.47 -29.48,23.85 -1.12,0.42 -2.03,-0.79 -2.02,-1.91 0.22,-31.53 28.98,-63.95 46.17,-86.08 22.09,-28.45 49.41,-52.21 77.57,-73.29 28.77,-21.55 60.11,-37.27 93.49,-49.54 29.86,-10.97 72.55,-28.83 104.73,-15.85 20.46,8.25 18.41,36.82 2.8,47.29"
         style="fill:#000000;fill-opacity:1;fill-rule:nonzero;stroke:none"
         id="path182" />
      <path
         d="m 6948.67,7726.32 c -56.07,13.08 -109.92,6.91 -160.6,-30.28 -24.81,-18.22 -44.95,-40.81 -60.54,-68.6 -14.4,-25.68 -32.56,-64.31 -18.54,-91.69 4.14,-8.07 16.79,-14.35 24.86,-7.2 17.82,15.78 19.07,47.7 29.67,69.41 11,22.58 26.83,44.01 43.84,61.75 35.93,37.47 91.7,68.43 140.32,60.97 3.42,-0.52 4.07,4.93 0.99,5.64"
         style="fill:#000000;fill-opacity:1;fill-rule:nonzero;stroke:none"
         id="path184" />
      <path
         d="m 5452.4,5208.31 c 4.59,34.3 5.52,69.25 9.2,103.7 3.46,32.38 7.63,64.68 12.51,96.88 10.06,66.5 23.01,132.66 38.65,198.07 15.82,66.14 34.89,131.6 56.01,196.25 21.08,64.49 46.2,127.71 64.52,193.02 1.02,3.64 -4.12,9.36 -7.03,4.99 -37.24,-56.1 -63.1,-119.23 -86.71,-182.12 -24.36,-64.89 -44.77,-131.05 -62.22,-198.12 -17.34,-66.67 -31.54,-134 -42.36,-202.03 -10.72,-67.35 -22.2,-137.47 -22.03,-205.79 0.06,-21.96 36.2,-29.15 39.46,-4.85"
         style="fill:#000000;fill-opacity:1;fill-rule:nonzero;stroke:none"
         id="path186" />
      <path
         d="m 5549.19,3014.51 c -175.56,-99.12 -402.39,-66.94 -542.99,77.1 -68.75,70.43 -112.24,162.42 -124.47,259.92 -14.31,114.07 9.31,229.83 35.87,340.37 16.67,69.32 35.88,138.1 57.04,206.17 10.63,34.19 22.12,68.06 33.66,101.94 11.27,33.09 24.39,66.1 32.03,100.22 0.4,1.79 -2.48,3.83 -3.67,2.01 -17.65,-26.96 -29.88,-57.41 -42.59,-86.95 -13.14,-30.55 -24.97,-61.73 -36.61,-92.88 -23.69,-63.38 -44.93,-127.58 -63.8,-192.56 -34.03,-117.13 -64.88,-238.11 -56.78,-361.1 14.23,-216.3 176.09,-409.75 389.42,-454.89 120.46,-25.49 247.36,-6.42 354.61,54.04 28.1,15.84 -3.51,62.54 -31.72,46.61"
         style="fill:#000000;fill-opacity:1;fill-rule:nonzero;stroke:none"
         id="path188" />
      <path
         d="m 5747.01,6350.11 c -0.39,229.49 43.07,455.78 134.43,666.75 25.89,59.79 55.95,117.71 85.9,175.53 2.85,5.48 -6.14,12.79 -10.12,7.19 -67.01,-94.18 -116.47,-201.72 -155.76,-310.11 -39.75,-109.64 -66.63,-224.35 -81.2,-340.02 -8.35,-66.22 -12.74,-133.02 -11.9,-199.77 0.32,-25.09 38.69,-26.76 38.65,0.43"
         style="fill:#000000;fill-opacity:1;fill-rule:nonzero;stroke:none"
         id="path190" />
      <path
         d="m 6196.28,4317.71 c 4.81,25.8 3.35,54.77 2.62,81.04 -0.77,27.82 -3.79,55.55 -9.6,82.78 -5.62,26.31 -13.09,52.01 -23.54,76.82 -10.27,24.38 -24.47,46.33 -37.43,69.29 -0.17,0.3 -0.67,0.08 -0.5,-0.24 22.72,-44.76 35.01,-99.43 42.46,-148.82 3.73,-24.66 6.15,-49.59 6.55,-74.53 0.44,-27.25 -4.58,-52.69 -7,-79.55 -1.47,-16.25 23.03,-25.17 26.44,-6.79"
         style="fill:#000000;fill-opacity:1;fill-rule:nonzero;stroke:none"
         id="path192" />
      <path
         d="m 6492.15,6282.61 c -133.41,144.99 -341.11,202.42 -529.05,141.54 -50.17,-16.26 -96.82,-41.48 -139.85,-71.79 -1.05,-0.74 0.17,-2.54 1.25,-1.84 97.26,62.3 217.79,88.04 332.3,76.3 122.06,-12.52 238.04,-72.39 321.11,-162.2 11.38,-12.3 24.78,6.54 14.24,17.99"
         style="fill:#000000;fill-opacity:1;fill-rule:nonzero;stroke:none"
         id="path194" />
      <path
         d="m 6263.59,6822 c -28.41,21.57 -54.11,45.18 -73.47,75.42 -19.33,30.2 -32.64,64.5 -40.4,99.45 -18.46,83.21 -11.59,174.44 2.68,257.87 0.12,0.71 -1.01,1.09 -1.16,0.3 -17.32,-90.01 -38.35,-179 -19.27,-270.82 14.77,-71.11 52.28,-148.82 118.35,-185.06 14.69,-8.06 25.82,13.31 13.27,22.84"
         style="fill:#000000;fill-opacity:1;fill-rule:nonzero;stroke:none"
         id="path196" />
      <path
         d="m 6234.12,5099.94 c -25.46,2.57 -54.05,-3.22 -79.21,-7.41 -16.68,-2.77 -33.33,-5.94 -49.89,-9.51 -0.02,1.63 -0.34,3.3 -0.94,4.94 0.35,8 -5.49,17.04 -14.28,15.85 -7.33,-1 -14.67,-1.95 -22,-2.9 -2.71,8.67 -11.21,16.14 -21.43,13.4 -7.2,-1.94 -14.43,-3.74 -21.65,-5.56 -5.35,5.34 -13.31,7.88 -20.97,3.38 -23.65,-13.9 -47.29,-27.66 -70.3,-42.61 -9.93,-6.46 -7.12,-18.28 0.34,-24.79 -15.41,-5 -30.7,-10.31 -45.81,-16.01 -10.4,-3.93 -9.03,-16.63 -2.51,-22.85 -37.3,-18.4 -73.32,-39.08 -108.11,-62.1 -44.13,-29.17 -89.86,-62.72 -122.84,-104.6 -0.72,-0.91 0.47,-2.22 1.45,-1.67 45.8,25.43 88.33,57.01 133.5,83.65 46.56,27.45 95.32,51.67 145.16,72.58 48.44,20.31 98.18,37.79 148.86,51.64 25.3,6.92 50.68,13.42 76.38,18.76 25.75,5.34 54.36,7.58 79.09,16.21 11.29,3.95 4.64,18.64 -4.84,19.6"
         style="fill:#000000;fill-opacity:1;fill-rule:nonzero;stroke:none"
         id="path198" />
      <path
         d="m 7722.23,4768.46 c 10.65,44.79 16.97,90.48 18.77,136.49 3.52,90.36 -8.25,181.62 -38.24,267.1 -8.52,24.28 -18.32,48.13 -29.4,71.37 -11.14,23.39 -22.91,47.92 -40.67,67.04 -11.01,11.85 -27.04,-1.65 -22.35,-15.21 9.14,-26.41 25.24,-50.84 36.8,-76.3 11.02,-24.25 20.68,-49.13 28.96,-74.45 17.56,-53.64 30.21,-108.58 36.46,-164.72 6.2,-55.71 6.05,-112.01 0.04,-167.73 -6.06,-56.17 -17.04,-115.59 -36.95,-168.6 -0.44,-1.16 1.35,-2.31 1.9,-1.04 17.82,41.64 34.14,81.77 44.68,126.05"
         style="fill:#000000;fill-opacity:1;fill-rule:nonzero;stroke:none"
         id="path200" />
      <path
         d="m 3656.87,3271.39 c -42.29,36.43 -87.64,67.36 -128.31,106.47 -41.17,39.61 -80.23,81.98 -116.06,127.78 -72.94,93.23 -132.76,200.1 -181.82,312.45 -0.47,1.07 -1.99,0.69 -1.6,-0.62 35.38,-121.65 90.82,-232.5 160.39,-331.05 34.02,-48.18 70.9,-94.01 111.27,-135.39 41.22,-42.25 86.34,-87.78 136.06,-117.38 20.52,-12.21 37.15,23.02 20.07,37.74"
         style="fill:#000000;fill-opacity:1;fill-rule:nonzero;stroke:none"
         id="path202" />
      <path
         d="m 3659.49,3136.49 c 0.25,11.08 -5.79,18.8 -14.57,22.09 -5.04,1.88 -10.04,2.51 -14.88,2.15 1.81,27.06 14.85,52.18 39.01,65.08 24.65,13.16 10.12,50.45 -13.68,44.89 -42.27,-9.89 -68.4,-80.66 -46.57,-118.54 -18.67,-14.46 -28.91,-44.19 -16.79,-67.68 1,-1.94 3.53,-1.34 4.01,0.91 4.62,21.64 30.34,33.4 47.61,31.82 8.88,-0.81 15.67,10.54 15.86,19.28"
         style="fill:#000000;fill-opacity:1;fill-rule:nonzero;stroke:none"
         id="path204" />
      <path
         d="m 5868.51,2638.88 c 55.17,8.56 110.01,10.83 165.21,22.53 55.89,11.85 111.45,27.17 166.07,47.1 111.21,40.56 218.48,99.64 319.53,169.06 0.96,0.66 2.05,-0.46 1.03,-1.37 -94.35,-84.54 -200.01,-149.33 -311.18,-196.19 -54.35,-22.91 -109.88,-42.31 -166.03,-56.08 -57.31,-14.07 -119.69,-28.86 -177.54,-27.69 -23.87,0.48 -19.36,39.18 2.91,42.64"
         style="fill:#000000;fill-opacity:1;fill-rule:nonzero;stroke:none"
         id="path206" />
      <path
         d="m 5891.97,2648.02 c -65.97,31.25 -143.02,43.73 -213.43,62.3 -72.5,19.12 -144.42,40.7 -216.55,61.17 -144.35,40.98 -288.7,81.96 -433.04,122.93 -286.99,81.47 -573.73,164.07 -861.3,243.42 -80.41,22.18 -160.95,43.93 -241.43,65.9 -77.93,21.26 -159.49,48.85 -240.01,56.77 -11.22,1.1 -10.07,-15.84 -2.34,-19.59 64.92,-31.53 138.84,-49.86 207.82,-70.74 71.97,-21.8 144.1,-43.1 216.14,-64.64 143.91,-43.04 288.42,-84.08 432.7,-125.85 286.83,-83.04 573.75,-165.8 860.69,-248.47 80.33,-23.14 160.71,-46.16 241.01,-69.44 79.56,-23.06 160.71,-59.18 243.24,-68.18 30.99,-3.38 28.08,44.19 6.5,54.42"
         style="fill:#000000;fill-opacity:1;fill-rule:nonzero;stroke:none"
         id="path208" />
      <path
         d="m 5895.74,2641.52 c -10.63,8.5 -27.6,8.91 -33.43,-5.73 -9.02,-22.66 2.89,-48.26 -3.6,-72.39 -7.21,-26.77 -24.35,-45.06 -44.21,-63.13 -0.63,-0.57 -1.17,-1.18 -1.67,-1.8 -2.03,2.14 -4.3,3.95 -6.81,5.26 -64.88,33.77 -142.67,46.48 -212.64,66.88 -71.89,20.96 -143.66,42.37 -215.41,63.84 -143.53,42.95 -286.96,86.24 -430.28,129.88 -284.93,86.74 -569.36,175.13 -854,262.79 -79.59,24.51 -159.19,48.91 -238.91,73 -80.01,24.18 -161.61,55.13 -244.53,67.07 -16.79,2.42 -20.98,-19.73 -6.84,-27 64.98,-33.43 137.42,-54.06 206.5,-77.39 71.19,-24.05 142.39,-48.01 213.82,-71.33 142.64,-46.55 285.36,-92.85 428.5,-137.84 286.05,-89.88 572.52,-178.39 859.4,-265.54 81.51,-24.76 163.03,-49.53 244.57,-74.22 39.19,-11.88 78.25,-24.17 117.34,-36.42 41.4,-12.98 82.17,-27.83 125.57,-31.62 18.21,-1.6 25.22,12.12 24.31,26.87 1.74,-0.23 3.57,-0.19 5.48,0.2 33.84,6.82 60.28,36.48 73.73,66.91 13.04,29.51 21.89,78.72 -6.89,101.71"
         style="fill:#000000;fill-opacity:1;fill-rule:nonzero;stroke:none"
         id="path210" />
      <path
         d="m 3738.18,2899.44 c 1.23,30.99 2.43,61.99 3.02,93 0.73,38.46 5.44,80.3 -3.89,117.98 -1.16,4.69 -8.71,6.23 -10.64,1.33 -14.68,-37.09 -13.57,-82.08 -16.96,-121.43 -2.93,-33.96 -5.18,-67.99 -7.5,-101.99 10.95,7.25 23.31,11.04 35.97,11.11"
         style="fill:#000000;fill-opacity:1;fill-rule:nonzero;stroke:none"
         id="path212" />
      <path
         d="m 3726.46,2613.01 c -4,3.03 -7.9,6.15 -11.56,9.49 -12.42,11.3 -21.68,23.74 -28.13,36.82 -1.31,-20.3 -2.65,-40.59 -3.92,-60.89 -5.45,-86.66 -11.26,-173.31 -16.17,-260 -0.72,-12.75 -1.44,-25.5 -2.16,-38.25 11.33,13.01 24.44,24.64 39.15,34.38 3.44,2.28 6.9,3.98 10.33,5.25 4.4,85.89 7.89,171.83 11.78,257.73 0.24,5.16 0.44,10.31 0.68,15.47"
         style="fill:#000000;fill-opacity:1;fill-rule:nonzero;stroke:none"
         id="path214" />
      <path
         d="m 5636.77,2306.97 c 1.64,-3.68 3.04,-7.48 4.33,-11.34 12.04,29.28 24.07,58.54 36.48,87.66 16.38,38.39 34.54,76.24 45.01,116.75 3.53,13.67 -17.14,26.39 -26.5,14.63 -25.69,-32.26 -43.56,-70.74 -62.31,-107.3 -9.2,-17.91 -18.36,-35.85 -27.42,-53.84 18.71,-6.92 30.48,-27.01 30.41,-46.56"
         style="fill:#000000;fill-opacity:1;fill-rule:nonzero;stroke:none"
         id="path216" />
      <path
         d="m 5428.55,1909.41 c 20.02,2.9 40.94,-0.15 58.49,-9.59 16.07,44.64 32.49,89.16 49.16,133.57 13.35,35.53 27.16,70.85 41.22,106.08 -18.67,-7.15 -39.82,-8.39 -61.92,-1.36 -2.5,0.8 -4.99,1.7 -7.46,2.67 -11.35,-26.32 -22.58,-52.69 -33.61,-79.11 -21.08,-50.53 -41.97,-101.66 -61.99,-153.26 5.28,1.07 10.69,1.38 16.11,1"
         style="fill:#000000;fill-opacity:1;fill-rule:nonzero;stroke:none"
         id="path218" />
      <path
         d="m 5395.35,1757.29 c -1.75,1.59 -3.36,3.28 -4.87,5.02 -10.27,4.93 -18.28,12.15 -24.25,20.69 -18.99,-54.83 -36.39,-110.11 -51.34,-165.71 -19.16,-6.89 -28.42,-36.9 -8.58,-58.35 4.02,-4.36 8.06,-8.72 12.08,-13.08 14.34,-15.5 44.17,-12.48 51.8,8.36 22.72,62.11 42.04,125.43 62.5,188.34 -13.66,1.27 -26.52,4.91 -37.34,14.73"
         style="fill:#000000;fill-opacity:1;fill-rule:nonzero;stroke:none"
         id="path220" />
      <path
         d="m 5202.69,1331.44 c -44,28.46 -105.32,35.89 -155.46,49.38 -52.5,14.13 -104.97,28.41 -157.54,42.3 -103.45,27.31 -206.89,54.64 -310.33,81.96 -208.29,55.01 -416.98,109.16 -626.2,160.54 -59.2,14.53 -118.27,29.97 -177.81,43.08 -56.44,12.42 -112.85,26.85 -170.69,30.06 -5.96,0.33 -5.54,-8.31 -1.35,-10.43 94.77,-47.94 202.38,-73.62 303.74,-104.23 102.84,-31.06 206.01,-60.98 309.16,-91.02 207.7,-60.5 415.67,-119.94 623.81,-178.91 58.94,-16.69 117.96,-33.12 176.98,-49.54 27.87,-7.76 55.73,-15.51 83.59,-23.27 30.49,-8.48 61.22,-20.3 93.28,-18.19 39.68,2.61 35.55,50.98 8.82,68.27"
         style="fill:#000000;fill-opacity:1;fill-rule:nonzero;stroke:none"
         id="path222" />
      <path
         d="m 5285.08,1342.61 c -16.74,-9.87 -34.82,-13.58 -53.47,-13.38 0.05,-12.56 0.2,-25.1 0.63,-37.65 0.25,-7.11 10.97,-12.92 15.84,-6.37 5.49,7.4 10.44,15.12 15.85,22.56 3.82,5.27 9.14,16.73 14.31,20.21 6.02,4.06 9.88,10.59 11.26,17.64 -1.46,-1.02 -2.87,-2.09 -4.42,-3.01"
         style="fill:#000000;fill-opacity:1;fill-rule:nonzero;stroke:none"
         id="path224" />
      <path
         d="m 5141.85,1392.97 c -36.06,35.19 -93,52.83 -137.95,74.37 -47.51,22.78 -95.03,45.56 -142.55,68.34 -95.01,45.55 -190.37,90.36 -285.6,135.43 -190.38,90.11 -381.41,178.93 -573.42,265.53 -105.58,47.62 -210.25,97.53 -321.56,130.38 -3.73,1.1 -3.8,-3.96 -1.47,-5.56 87.74,-60.42 182.18,-108.16 276.87,-156.61 93.95,-48.08 188.16,-95.6 282.58,-142.76 188.67,-94.24 377.81,-187.58 567.71,-279.35 52.04,-25.15 104.1,-50.26 156.16,-75.39 27.55,-13.3 55.11,-26.61 82.67,-39.91 27.06,-13.07 51.66,-26.52 81.93,-29.54 31.24,-3.12 30.53,39.55 14.63,55.07"
         style="fill:#000000;fill-opacity:1;fill-rule:nonzero;stroke:none"
         id="path226" />
      <path
         d="m 5321.47,1588.83 c -46.42,33.04 -103.97,54.45 -155.04,79.61 -52.05,25.64 -104.1,51.28 -156.15,76.92 -104.1,51.28 -208.2,102.56 -312.3,153.83 -206.62,101.78 -413.22,203.66 -621.01,303.02 -58.45,27.96 -116.95,55.74 -175.81,82.84 -58.59,26.97 -116.04,55.25 -178.04,73.3 -13.72,3.99 -20.21,-15.88 -9.76,-23.51 91.82,-67.05 198.39,-115.88 299.31,-167.92 103.26,-53.24 206.72,-106 310.47,-158.28 208.91,-105.27 417.99,-210.16 627.14,-314.94 58.01,-29.06 116.01,-58.12 174.02,-87.18 58.04,-29.08 117.09,-66.69 179.24,-85.68 16.97,-5.18 33.88,5.88 38.32,22.23 5.17,19 -5.41,35.1 -20.39,45.76"
         style="fill:#000000;fill-opacity:1;fill-rule:nonzero;stroke:none"
         id="path228" />
      <path
         d="m 5381.53,1787.01 c -46.39,37.8 -107.21,60.8 -160.4,87.85 -53.08,26.99 -106.16,53.99 -159.25,80.98 -107.68,54.76 -215.25,109.72 -323.04,164.27 -215.46,109.04 -431.64,216.62 -648.13,323.58 -60.92,30.1 -122.21,59.51 -183.65,88.54 -29.13,13.77 -58.44,27.39 -87.97,40.27 -29.54,12.89 -60.99,27.47 -92.76,33 -6.7,1.17 -9.06,-6.73 -4.55,-10.96 42.32,-39.81 99.46,-66.62 149.76,-95.02 51.96,-29.35 104.61,-57.7 157.22,-85.87 106.64,-57.08 213.58,-113.73 320.86,-169.56 214.45,-111.61 429.15,-222.71 644.15,-333.26 60.55,-31.14 121.09,-62.27 181.64,-93.4 28.76,-14.79 57.52,-29.58 86.28,-44.37 31.17,-16.02 61.81,-34.91 95.94,-43.65 34.38,-8.8 48.45,37.6 23.9,57.6"
         style="fill:#000000;fill-opacity:1;fill-rule:nonzero;stroke:none"
         id="path230" />
      <path
         d="m 5508.08,1921.04 c -51,43.1 -117.3,71.91 -175.37,104.75 -56.32,31.86 -112.64,63.75 -168.91,95.68 -115.53,65.58 -231.06,131.15 -346.59,196.73 -227.95,129.37 -455.57,259.55 -685.67,385.06 -65.64,35.81 -131.1,71.94 -197.21,106.86 -62.76,33.16 -125.42,73.18 -194.28,91.55 -6.64,1.76 -8.37,-6.76 -4.39,-10.59 47.8,-45.96 107.46,-77.83 163.67,-112.6 55.27,-34.19 110.95,-67.67 166.67,-101.13 114.16,-68.54 229.13,-135.67 344.01,-202.96 226.57,-132.72 454.29,-263.48 681.64,-394.85 64.95,-37.54 129.89,-75.09 194.79,-112.72 32.45,-18.82 64.9,-37.65 97.35,-56.46 32.27,-18.72 63.23,-39.05 98.61,-51.23 37.44,-12.9 50.11,41.27 25.68,61.91"
         style="fill:#000000;fill-opacity:1;fill-rule:nonzero;stroke:none"
         id="path232" />
      <path
         d="m 5582.1,2163.95 c -97.74,64.22 -205.5,115.65 -308.12,171.75 -103.05,56.34 -206.2,112.49 -309.47,168.45 -203.4,110.21 -406.76,220.46 -611.83,327.54 -57.22,29.89 -114.42,59.75 -172.1,88.73 -30.32,15.23 -60.79,30.1 -91.34,44.88 -25.18,12.19 -50.63,25.65 -78.91,27.4 -3.41,0.22 -4.64,-4.34 -2.82,-6.66 31.57,-40.19 86.29,-65.32 129.55,-91.2 51.35,-30.72 102.86,-61.1 154.68,-91.03 101.97,-58.87 204.32,-117.03 306.68,-175.23 201.43,-114.53 404.54,-226.28 607.38,-338.32 56.66,-31.3 113.32,-62.59 169.97,-93.89 59.44,-32.83 118.08,-68.28 180.04,-96.12 45.58,-20.47 62.7,39.77 26.29,63.7"
         style="fill:#000000;fill-opacity:1;fill-rule:nonzero;stroke:none"
         id="path234" />
      <path
         d="m 5645.26,2378.47 c -2.76,1.05 -5.35,1.25 -7.7,0.82 -26.28,18.24 -57.91,30.49 -86.18,44.71 l -100.12,50.4 c -68.23,34.35 -136.9,67.8 -205.46,101.47 -67.02,32.91 -134.01,65.83 -201.42,97.93 -64.87,30.88 -130.89,70.85 -201.78,84.85 -1.68,0.34 -2.24,-1.7 -1.14,-2.74 52.59,-49.29 120.99,-80.93 183.19,-116.57 66.62,-38.17 133.67,-75.56 200.74,-112.93 65.52,-36.51 130.91,-73.27 196.8,-109.13 32.91,-17.92 65.82,-35.84 98.73,-53.76 32.9,-17.92 67.17,-42.72 103.45,-52.48 8.26,-2.23 15.29,-1.25 21.01,1.68 2.4,-5.69 4.48,-11.57 5.88,-17.88 4.8,-21.54 4.34,-44.42 -3.22,-65.29 -7.08,-19.55 -20.12,-37.03 -36.66,-49.56 -18.35,-13.9 -46.89,-17.67 -59.93,-36.8 -10.39,-15.23 -5.32,-38.05 11.86,-46.55 31.98,-15.84 66.9,3.68 92.17,24.69 27.09,22.52 47.18,52.19 56.39,86.28 15.76,58.28 -4.19,147.08 -66.61,170.86"
         style="fill:#000000;fill-opacity:1;fill-rule:nonzero;stroke:none"
         id="path236" />
      <path
         d="m 5503.7,1921.72 c -19.97,12.72 -31.34,-13.19 -23.08,-28.58 16.06,-29.94 23.07,-63.8 0.01,-92.12 -9.68,-11.88 -22.31,-20.12 -37,-24.51 -15.69,-4.68 -30.98,-2.97 -44.74,-13.45 -14.87,-11.32 -13.09,-33.06 0.11,-45.09 45.48,-41.4 119.96,6.73 142.58,51.95 25.48,50.93 10.74,120.83 -37.88,151.8"
         style="fill:#000000;fill-opacity:1;fill-rule:nonzero;stroke:none"
         id="path238" />
      <path
         d="m 5339.1,1559.15 c -13.73,13.48 -33.58,-1.28 -27.43,-18.49 11.61,-32.4 18.31,-66.26 11.34,-98.6 2.72,-7.76 3.96,-16.64 1.79,-23.42 -0.23,-0.73 -0.48,-1.44 -0.72,-2.17 0.75,-4.9 0.8,-9.9 -0.07,-14.8 -4.24,-23.97 -17.65,-46.5 -38.93,-59.06 -22.36,-13.19 -47.14,-15.38 -72.46,-11.95 -10.44,1.41 -18.99,6.73 -25.27,14.09 -38.74,-2.52 -25.49,-63.47 11.01,-65.78 67.34,-4.24 132.31,33.18 163.76,92.73 30.66,58.04 24.98,140.3 -23.02,187.45"
         style="fill:#000000;fill-opacity:1;fill-rule:nonzero;stroke:none"
         id="path240" />
      <path
         d="m 3718.99,2051.51 c -13.78,23.15 -45.95,33.78 -64.24,54.05 -19.66,21.79 -33.94,50.82 -36.38,80.19 -2.28,27.6 5.16,55.91 19.4,79.59 15.94,26.48 39.93,41.25 62.95,60.61 25.74,21.64 2.67,61.71 -28.7,55.88 -82.24,-15.3 -128.39,-125.27 -117.02,-200.23 6.45,-42.47 26.63,-81.27 57.52,-111.04 21.34,-20.56 73.54,-59.89 104.05,-37.8 6.25,4.53 6.07,12.63 2.42,18.75"
         style="fill:#000000;fill-opacity:1;fill-rule:nonzero;stroke:none"
         id="path242" />
      <path
         d="m 3731.37,2600.84 c -7.32,14.08 -21.98,22 -33.37,32.5 -12.37,11.41 -23.06,24.06 -32.27,38.12 -16.26,24.82 -26.88,53.58 -25.72,83.68 2.55,65.92 51.75,109.5 108.53,133.37 42.63,17.92 14.76,75.81 -25.89,69.82 -91.35,-13.45 -153.2,-115.15 -150.79,-201.84 1.25,-45.37 19.94,-91.61 50.01,-125.55 21.53,-24.3 72.31,-67.55 107.2,-47.9 6.57,3.71 5.09,12.42 2.3,17.8"
         style="fill:#000000;fill-opacity:1;fill-rule:nonzero;stroke:none"
         id="path244" />
      <path
         d="m 3696.98,1727 c 3.24,13.51 4.36,25.96 4.39,39.78 0.01,4.4 -1.33,8.49 -3.52,12.11 3.09,71.03 13.44,142.13 9.04,213.08 -0.51,8.27 -15.22,15.1 -18.22,4.83 -21.03,-72.01 -25.59,-148.01 -39.39,-221.74 -3.56,-10.97 -5.76,-21.96 -7.04,-33.55 -7.9,-33.42 45.84,-51.63 54.74,-14.51"
         style="fill:#000000;fill-opacity:1;fill-rule:nonzero;stroke:none"
         id="path246" />
      <path
         d="m 5050.68,1280.43 c 9.66,37.76 -56.68,70.77 -70.27,28.43 -26.3,-81.92 -91.26,-137.96 -171.7,-165.46 -91.61,-31.3 -191.66,-21.7 -285.31,-5.7 -190.9,32.5 -416.29,64 -552.87,215.76 -64.16,71.28 -99.9,165.03 -91.45,261.43 0.52,5.97 -8.52,11.72 -11.43,4.63 -17.37,-42.38 -22.24,-82.74 -15.31,-128.51 6.9,-45.58 23.64,-88.49 46.24,-128.5 52.73,-93.3 140.25,-158.91 237.41,-200.81 110.5,-47.7 228.99,-70.3 346.69,-92.3 109.69,-20.5 225.77,-36.9 335.24,-6.1 107.1,30.1 204.39,106.3 232.76,217.13"
         style="fill:#000000;fill-opacity:1;fill-rule:nonzero;stroke:none"
         id="path248" />
      <path
         d="m 2669.2,6257.77 c -18.61,16.18 -34.65,32.98 -56.79,44.3 -22.73,11.61 -45.25,23.88 -68.34,34.76 -47.59,22.41 -96.35,42.63 -144.45,63.92 -94.74,41.94 -189.49,83.86 -284.23,125.8 -194.13,85.91 -393.6,159 -593.16,231.24 -54.52,19.73 -108.82,40.2 -163.96,58.17 -27.42,8.93 -54.84,17.87 -82.26,26.8 -39.68,12.93 -81.63,31.14 -123.25,14.38 -67.3,-27.11 -87.17,-107.92 -44.39,-167.02 16.5,-22.81 35.78,-42.31 61.62,-54.12 16.95,-7.75 34.99,-13.6 52.56,-19.82 24.12,-8.54 48.23,-17.07 72.35,-25.61 49.7,-17.59 99.61,-34.06 149.86,-50.03 98.4,-31.28 196.6,-63.24 295.66,-92.36 97.04,-28.53 193.6,-58.05 291.95,-81.72 99.41,-23.93 198.82,-47.86 298.23,-71.79 55.41,-13.34 110.81,-26.67 166.22,-40.01 27.67,-6.66 55.53,-11.61 83.53,-16.65 12.31,-2.21 25.24,-5.99 37.8,-6.33 14.94,-0.41 30.81,3.85 45.63,5.32 10.62,1.04 13.08,14.13 5.42,20.77"
         style="fill:#000000;fill-opacity:1;fill-rule:nonzero;stroke:none"
         id="path250" />
      <path
         d="m 6889.96,10039.4 c -0.01,31.5 -9.63,57.2 -24.99,84.6 -19.08,34 -74.4,60.5 -112.79,45.4 -70.75,-27.8 -79.47,-95.6 -96.3,-160.7 -12.8,-49.56 -25.62,-99.13 -38.42,-148.7 -25.63,-99.15 -51.25,-198.29 -76.87,-297.43 -52.24,-202.19 -105.34,-404.93 -143.89,-610.24 -5.7,-30.35 -49.74,-298.4 1.64,-294.01 16.9,1.45 25.13,13.68 34.82,26.39 15.78,20.7 32.34,40.96 43.42,64.58 20.36,43.46 40.49,87.64 58.68,132.05 37.49,91.5 67.39,186.66 96.6,281.03 58.48,188.91 116.23,377.99 173.02,567.41 16.03,53.47 32.06,106.94 48.1,160.41 7.77,25.92 15.91,51.75 23.31,77.78 6.67,23.43 13.68,46.93 13.67,71.43"
         style="fill:#000000;fill-opacity:1;fill-rule:nonzero;stroke:none"
         id="path252" />
      <path
         d="m 4503.44,9220.24 c -23.52,75.83 -57.07,148.94 -90.3,220.91 -33.51,72.6 -67.03,145.2 -100.54,217.8 -38.19,82.71 -69.37,177.75 -131.63,245.18 -24.19,26.2 -69.24,32.68 -100.07,17.94 -32.69,-15.63 -50.27,-52.23 -45.31,-88.17 6.51,-47.23 27.47,-85.98 48.25,-128 18.18,-36.74 36.36,-73.5 54.53,-110.25 35.6,-71.97 71.2,-143.94 106.8,-215.91 37.59,-76 75.86,-153.35 123.09,-223.95 42.88,-64.1 82.91,-136.36 154.51,-172.51 8.21,-4.14 15.61,0.12 17.68,8.59 18.91,77.5 -14.4,155.47 -37.01,228.37"
         style="fill:#000000;fill-opacity:1;fill-rule:nonzero;stroke:none"
         id="path254" />
      <path
         d="m 3435.35,7897.8 c -148.53,116.89 -307.23,219.71 -472.61,311.41 -162.86,90.31 -327.31,176.92 -492.54,262.78 -45.41,23.6 -90.8,47.18 -136.2,70.78 -54.82,28.48 -117.48,64.32 -180.31,60.09 -73.64,-4.96 -100.64,-87.73 -60.47,-144.85 20.74,-29.49 42.7,-50.86 73.44,-69.4 20.58,-12.43 40.89,-25.09 62.38,-35.9 l 127.84,-64.28 c 82.18,-41.32 164.37,-82.64 246.54,-123.97 165.77,-83.35 334.66,-158.78 505.36,-231.33 97.68,-41.5 197.21,-73.52 299.38,-101.67 39.44,-10.87 55.52,44.04 27.19,66.34"
         style="fill:#000000;fill-opacity:1;fill-rule:nonzero;stroke:none"
         id="path256" />
      <path
         d="m 9321.69,7390.88 c -60.29,29.17 -123.91,4.05 -185.28,-10.21 -49.67,-11.55 -99.33,-23.1 -149.01,-34.64 -95.86,-22.28 -191.19,-46.85 -286.69,-70.65 -95.47,-23.8 -190.94,-47.61 -286.41,-71.41 -49.19,-12.26 -99.38,-22.72 -147.68,-38.16 -47.07,-15.05 -100.02,-26.81 -138.44,-58.63 -23.04,-19.07 -12.23,-57.46 16.38,-64.72 49.85,-12.64 101.49,-3.7 152.15,1.58 52.77,5.5 105.18,16.2 157.49,25.03 98.18,16.58 196.37,33.17 294.55,49.75 98.13,16.57 196.46,32.24 294.33,50.35 50.49,9.34 100.99,18.68 151.49,28.02 54.09,10 126.91,10.48 162.33,57.89 32.29,43.23 13.25,112.35 -35.21,135.8"
         style="fill:#000000;fill-opacity:1;fill-rule:nonzero;stroke:none"
         id="path258" />
      <path
         d="m 10134.2,4667.24 c 0,38.09 -16.6,63.9 -40.8,91.75 -31.9,36.64 -74.1,43.41 -118.71,50.24 -30.38,4.65 -60.75,9.3 -91.13,13.94 -59.05,9.04 -118.06,18.42 -177.24,26.59 -118.33,16.32 -236.67,32.65 -355,48.97 -242.57,33.47 -485.66,62.34 -728.73,91.89 -66.89,8.13 -133.6,13.65 -200.81,18.48 -61.61,4.42 -141.85,18.34 -196.95,-15.66 -24.42,-15.08 -16.71,-50.13 0.47,-66.72 44.95,-43.4 117.61,-56.65 176.6,-70.81 58.37,-14.02 116.55,-29.14 175.53,-40.35 l 352.75,-67.03 c 236.72,-44.99 474.19,-85.5 711.59,-126.68 67.31,-11.67 134.75,-22.41 202.22,-33.1 32.05,-5.06 64.09,-10.14 96.12,-15.21 52.61,-8.33 108.49,-23.8 154.49,12.7 26.5,21.09 39.6,47.14 39.6,81"
         style="fill:#000000;fill-opacity:1;fill-rule:nonzero;stroke:none"
         id="path260" />
    </g>
  </g>
</svg>
